<?xml version="1.0" encoding="UTF-8" standalone="no"?>
<!DOCTYPE svg PUBLIC "-//W3C//DTD SVG 1.1//EN"
 "http://www.w3.org/Graphics/SVG/1.1/DTD/svg11.dtd">
<!-- Generated by graphviz version 8.1.0 (20230707.0739)
 -->
<!-- Title: GraphOfConvexSets Pages: 1 -->
<svg width="1925pt" height="398pt"
 viewBox="0.00 0.00 1925.46 398.00" xmlns="http://www.w3.org/2000/svg" xmlns:xlink="http://www.w3.org/1999/xlink">
<g id="graph0" class="graph" transform="scale(1 1) rotate(0) translate(4 394)">
<title>GraphOfConvexSets</title>
<polygon fill="white" stroke="none" points="-4,4 -4,-394 1921.46,-394 1921.46,4 -4,4"/>
<!-- v6861 -->
<g id="node1" class="node">
<title>v6861</title>
<ellipse fill="none" stroke="black" cx="798.71" cy="-18" rx="31.9" ry="18"/>
<text text-anchor="middle" x="798.71" y="-12.95" font-family="Times,serif" font-size="14.00">target</text>
</g>
<!-- v6862 -->
<g id="node2" class="node">
<title>v6862</title>
<ellipse fill="none" stroke="black" cx="941.71" cy="-372" rx="27" ry="18"/>
<text text-anchor="middle" x="941.71" y="-366.95" font-family="Times,serif" font-size="14.00">0&#45;0</text>
</g>
<!-- v6863 -->
<g id="node3" class="node">
<title>v6863</title>
<ellipse fill="none" stroke="black" cx="1052.71" cy="-283.5" rx="27" ry="18"/>
<text text-anchor="middle" x="1052.71" y="-278.45" font-family="Times,serif" font-size="14.00">1&#45;0</text>
</g>
<!-- v6862&#45;&gt;v6863 -->
<g id="edge7" class="edge">
<title>v6862&#45;&gt;v6863</title>
<path fill="none" stroke="black" d="M963.35,-360.59C979.59,-352.58 1000.24,-341.92 1007.71,-336 1017.58,-328.18 1027,-317.99 1034.65,-308.75"/>
<polygon fill="black" stroke="black" points="1037.9,-311.28 1041.39,-301.28 1032.42,-306.92 1037.9,-311.28"/>
<text text-anchor="middle" x="1043.59" y="-322.7" font-family="Times,serif" font-size="14.00">0&#45;0 1&#45;0</text>
</g>
<!-- v6864 -->
<g id="node4" class="node">
<title>v6864</title>
<ellipse fill="none" stroke="black" cx="836.71" cy="-283.5" rx="27" ry="18"/>
<text text-anchor="middle" x="836.71" y="-278.45" font-family="Times,serif" font-size="14.00">1&#45;1</text>
</g>
<!-- v6862&#45;&gt;v6864 -->
<g id="edge8" class="edge">
<title>v6862&#45;&gt;v6864</title>
<path fill="none" stroke="black" d="M917.33,-363.79C901.56,-358.18 881.37,-349.12 866.96,-336 859.28,-329 852.97,-319.58 848.14,-310.72"/>
<polygon fill="black" stroke="black" points="850.93,-309.47 843.33,-302.1 844.67,-312.61 850.93,-309.47"/>
<text text-anchor="middle" x="886.59" y="-322.7" font-family="Times,serif" font-size="14.00">0&#45;0 1&#45;1</text>
</g>
<!-- v6865 -->
<g id="node5" class="node">
<title>v6865</title>
<ellipse fill="none" stroke="black" cx="980.71" cy="-283.5" rx="27" ry="18"/>
<text text-anchor="middle" x="980.71" y="-278.45" font-family="Times,serif" font-size="14.00">1&#45;2</text>
</g>
<!-- v6862&#45;&gt;v6865 -->
<g id="edge9" class="edge">
<title>v6862&#45;&gt;v6865</title>
<path fill="none" stroke="black" d="M949.23,-354.32C954.79,-342 962.47,-324.97 968.85,-310.82"/>
<polygon fill="black" stroke="black" points="972.3,-312.68 973.22,-302.13 965.91,-309.8 972.3,-312.68"/>
<text text-anchor="middle" x="983.59" y="-322.7" font-family="Times,serif" font-size="14.00">0&#45;0 1&#45;2</text>
</g>
<!-- v6866 -->
<g id="node6" class="node">
<title>v6866</title>
<ellipse fill="none" stroke="black" cx="908.71" cy="-283.5" rx="27" ry="18"/>
<text text-anchor="middle" x="908.71" y="-278.45" font-family="Times,serif" font-size="14.00">1&#45;3</text>
</g>
<!-- v6862&#45;&gt;v6866 -->
<g id="edge10" class="edge">
<title>v6862&#45;&gt;v6866</title>
<path fill="none" stroke="black" d="M928.12,-355.98C923.54,-350.13 918.87,-343.13 915.96,-336 912.98,-328.7 911.2,-320.38 910.13,-312.6"/>
<polygon fill="black" stroke="black" points="913.52,-312.34 909.03,-302.75 906.56,-313.05 913.52,-312.34"/>
<text text-anchor="middle" x="935.59" y="-322.7" font-family="Times,serif" font-size="14.00">0&#45;0 1&#45;3</text>
</g>
<!-- v6867 -->
<g id="node7" class="node">
<title>v6867</title>
<ellipse fill="none" stroke="black" cx="764.71" cy="-283.5" rx="27" ry="18"/>
<text text-anchor="middle" x="764.71" y="-278.45" font-family="Times,serif" font-size="14.00">1&#45;4</text>
</g>
<!-- v6862&#45;&gt;v6867 -->
<g id="edge11" class="edge">
<title>v6862&#45;&gt;v6867</title>
<path fill="none" stroke="black" d="M914.92,-368.66C886.7,-365.17 841.89,-356.62 808.96,-336 797.95,-329.1 788.21,-318.6 780.7,-308.87"/>
<polygon fill="black" stroke="black" points="783.16,-307.3 774.45,-301.27 777.5,-311.42 783.16,-307.3"/>
<text text-anchor="middle" x="828.59" y="-322.7" font-family="Times,serif" font-size="14.00">0&#45;0 1&#45;4</text>
</g>
<!-- v6868 -->
<g id="node8" class="node">
<title>v6868</title>
<ellipse fill="none" stroke="black" cx="1299.71" cy="-283.5" rx="27" ry="18"/>
<text text-anchor="middle" x="1299.71" y="-278.45" font-family="Times,serif" font-size="14.00">1&#45;5</text>
</g>
<!-- v6862&#45;&gt;v6868 -->
<g id="edge12" class="edge">
<title>v6862&#45;&gt;v6868</title>
<path fill="none" stroke="black" d="M962.68,-360.05C967.53,-357.82 972.72,-355.65 977.71,-354 1016.44,-341.2 1027.8,-344.42 1067.71,-336 1137.27,-321.33 1218.28,-303.08 1263.83,-292.71"/>
<polygon fill="black" stroke="black" points="1264.37,-295.95 1273.35,-290.31 1262.82,-289.12 1264.37,-295.95"/>
<text text-anchor="middle" x="1157.59" y="-322.7" font-family="Times,serif" font-size="14.00">0&#45;0 1&#45;5</text>
</g>
<!-- v6869 -->
<g id="node9" class="node">
<title>v6869</title>
<ellipse fill="none" stroke="black" cx="935.71" cy="-195" rx="27" ry="18"/>
<text text-anchor="middle" x="935.71" y="-189.95" font-family="Times,serif" font-size="14.00">2&#45;0</text>
</g>
<!-- v6863&#45;&gt;v6869 -->
<g id="edge13" class="edge">
<title>v6863&#45;&gt;v6869</title>
<path fill="none" stroke="black" d="M1041.21,-267.12C1032.38,-256.08 1019.42,-241.37 1005.71,-231 994.45,-222.49 980.8,-215.12 968.55,-209.37"/>
<polygon fill="black" stroke="black" points="970.23,-205.84 959.68,-204.93 967.36,-212.22 970.23,-205.84"/>
<text text-anchor="middle" x="1042.59" y="-234.2" font-family="Times,serif" font-size="14.00">1&#45;0 2&#45;0</text>
</g>
<!-- v6870 -->
<g id="node10" class="node">
<title>v6870</title>
<ellipse fill="none" stroke="black" cx="1628.71" cy="-195" rx="27" ry="18"/>
<text text-anchor="middle" x="1628.71" y="-189.95" font-family="Times,serif" font-size="14.00">2&#45;1</text>
</g>
<!-- v6863&#45;&gt;v6870 -->
<g id="edge14" class="edge">
<title>v6863&#45;&gt;v6870</title>
<path fill="none" stroke="black" d="M1079.66,-279.94C1119.76,-276.23 1197.49,-269.36 1263.71,-265.5 1291.52,-263.88 1745.37,-267.54 1764.71,-247.5 1796.08,-214.98 1717.13,-202.76 1666.77,-198.35"/>
<polygon fill="black" stroke="black" points="1667.14,-194.79 1656.89,-197.48 1666.58,-201.77 1667.14,-194.79"/>
<text text-anchor="middle" x="1791.59" y="-234.2" font-family="Times,serif" font-size="14.00">1&#45;0 2&#45;1</text>
</g>
<!-- v6871 -->
<g id="node11" class="node">
<title>v6871</title>
<ellipse fill="none" stroke="black" cx="321.71" cy="-195" rx="27" ry="18"/>
<text text-anchor="middle" x="321.71" y="-189.95" font-family="Times,serif" font-size="14.00">2&#45;2</text>
</g>
<!-- v6863&#45;&gt;v6871 -->
<g id="edge15" class="edge">
<title>v6863&#45;&gt;v6871</title>
<path fill="none" stroke="black" d="M1032.69,-271.26C1027.62,-268.92 1022.09,-266.78 1016.71,-265.5 945.16,-248.43 419.07,-283.56 354.96,-247.5 345.12,-241.96 337.72,-232.17 332.43,-222.59"/>
<polygon fill="black" stroke="black" points="335.22,-221.32 327.67,-213.88 328.93,-224.4 335.22,-221.32"/>
<text text-anchor="middle" x="375.59" y="-234.2" font-family="Times,serif" font-size="14.00">1&#45;0 2&#45;2</text>
</g>
<!-- v6872 -->
<g id="node12" class="node">
<title>v6872</title>
<ellipse fill="none" stroke="black" cx="1250.71" cy="-195" rx="27" ry="18"/>
<text text-anchor="middle" x="1250.71" y="-189.95" font-family="Times,serif" font-size="14.00">2&#45;3</text>
</g>
<!-- v6863&#45;&gt;v6872 -->
<g id="edge16" class="edge">
<title>v6863&#45;&gt;v6872</title>
<path fill="none" stroke="black" d="M1079.57,-280.17C1158,-273.29 1381.57,-253.21 1386.71,-247.5 1416.95,-213.93 1338.45,-202.13 1288.46,-198.06"/>
<polygon fill="black" stroke="black" points="1288.9,-194.51 1278.67,-197.27 1288.38,-201.49 1288.9,-194.51"/>
<text text-anchor="middle" x="1412.59" y="-234.2" font-family="Times,serif" font-size="14.00">1&#45;0 2&#45;3</text>
</g>
<!-- v6873 -->
<g id="node13" class="node">
<title>v6873</title>
<ellipse fill="none" stroke="black" cx="620.71" cy="-195" rx="27" ry="18"/>
<text text-anchor="middle" x="620.71" y="-189.95" font-family="Times,serif" font-size="14.00">2&#45;4</text>
</g>
<!-- v6863&#45;&gt;v6873 -->
<g id="edge17" class="edge">
<title>v6863&#45;&gt;v6873</title>
<path fill="none" stroke="black" d="M1032.29,-271.17C1027.33,-268.9 1021.94,-266.81 1016.71,-265.5 977.57,-255.7 688.91,-267.68 653.96,-247.5 644.18,-241.85 636.79,-232.04 631.5,-222.48"/>
<polygon fill="black" stroke="black" points="634.29,-221.22 626.72,-213.8 628.01,-224.31 634.29,-221.22"/>
<text text-anchor="middle" x="674.59" y="-234.2" font-family="Times,serif" font-size="14.00">1&#45;0 2&#45;4</text>
</g>
<!-- v6864&#45;&gt;v6869 -->
<g id="edge18" class="edge">
<title>v6864&#45;&gt;v6869</title>
<path fill="none" stroke="black" d="M840.68,-265.4C843.99,-254.4 849.69,-240.46 858.96,-231 870.35,-219.39 886.29,-211.26 900.71,-205.79"/>
<polygon fill="black" stroke="black" points="901.55,-208.85 909.84,-202.25 899.25,-202.24 901.55,-208.85"/>
<text text-anchor="middle" x="878.59" y="-234.2" font-family="Times,serif" font-size="14.00">1&#45;1 2&#45;0</text>
</g>
<!-- v6864&#45;&gt;v6870 -->
<g id="edge19" class="edge">
<title>v6864&#45;&gt;v6870</title>
<path fill="none" stroke="black" d="M856.73,-271.26C861.8,-268.92 867.33,-266.78 872.71,-265.5 948.73,-247.43 1503.69,-277.81 1575.71,-247.5 1579.7,-245.82 1594.22,-231.59 1607.05,-218.52"/>
<polygon fill="black" stroke="black" points="1609.25,-221.25 1613.72,-211.65 1604.23,-216.37 1609.25,-221.25"/>
<text text-anchor="middle" x="1612.59" y="-234.2" font-family="Times,serif" font-size="14.00">1&#45;1 2&#45;1</text>
</g>
<!-- v6864&#45;&gt;v6871 -->
<g id="edge20" class="edge">
<title>v6864&#45;&gt;v6871</title>
<path fill="none" stroke="black" d="M816.69,-271.26C811.62,-268.93 806.09,-266.78 800.71,-265.5 765.53,-257.1 175.18,-273.42 149.96,-247.5 109.09,-205.49 221.24,-197.42 283.44,-196.08"/>
<polygon fill="black" stroke="black" points="283.48,-199.57 293.42,-195.91 283.37,-192.57 283.48,-199.57"/>
<text text-anchor="middle" x="170.59" y="-234.2" font-family="Times,serif" font-size="14.00">1&#45;1 2&#45;2</text>
</g>
<!-- v6864&#45;&gt;v6872 -->
<g id="edge21" class="edge">
<title>v6864&#45;&gt;v6872</title>
<path fill="none" stroke="black" d="M857.14,-271.19C862.1,-268.92 867.49,-266.82 872.71,-265.5 942.83,-247.73 1131.47,-276.54 1197.71,-247.5 1201.68,-245.76 1216.2,-231.54 1229.04,-218.48"/>
<polygon fill="black" stroke="black" points="1231.23,-221.22 1235.71,-211.62 1226.22,-216.33 1231.23,-221.22"/>
<text text-anchor="middle" x="1234.59" y="-234.2" font-family="Times,serif" font-size="14.00">1&#45;1 2&#45;3</text>
</g>
<!-- v6864&#45;&gt;v6873 -->
<g id="edge22" class="edge">
<title>v6864&#45;&gt;v6873</title>
<path fill="none" stroke="black" d="M816.28,-271.19C811.32,-268.91 805.94,-266.82 800.71,-265.5 764.49,-256.35 490.66,-274.61 464.96,-247.5 428.78,-209.32 525.87,-199.43 582.76,-196.88"/>
<polygon fill="black" stroke="black" points="582.7,-200.34 592.56,-196.46 582.43,-193.35 582.7,-200.34"/>
<text text-anchor="middle" x="485.59" y="-234.2" font-family="Times,serif" font-size="14.00">1&#45;1 2&#45;4</text>
</g>
<!-- v6865&#45;&gt;v6869 -->
<g id="edge23" class="edge">
<title>v6865&#45;&gt;v6869</title>
<path fill="none" stroke="black" d="M972.25,-266.23C965.75,-253.74 956.66,-236.26 949.17,-221.87"/>
<polygon fill="black" stroke="black" points="952.01,-220.75 944.29,-213.49 945.8,-223.98 952.01,-220.75"/>
<text text-anchor="middle" x="981.59" y="-234.2" font-family="Times,serif" font-size="14.00">1&#45;2 2&#45;0</text>
</g>
<!-- v6865&#45;&gt;v6870 -->
<g id="edge24" class="edge">
<title>v6865&#45;&gt;v6870</title>
<path fill="none" stroke="black" d="M1000.73,-271.26C1005.8,-268.92 1011.33,-266.78 1016.71,-265.5 1053.75,-256.68 1675.15,-274.77 1701.71,-247.5 1718.14,-230.63 1689.4,-215.65 1663.29,-206.26"/>
<polygon fill="black" stroke="black" points="1664.74,-202.72 1654.15,-202.82 1662.49,-209.35 1664.74,-202.72"/>
<text text-anchor="middle" x="1725.59" y="-234.2" font-family="Times,serif" font-size="14.00">1&#45;2 2&#45;1</text>
</g>
<!-- v6865&#45;&gt;v6871 -->
<g id="edge25" class="edge">
<title>v6865&#45;&gt;v6871</title>
<path fill="none" stroke="black" d="M960.69,-271.26C955.62,-268.92 950.09,-266.78 944.71,-265.5 908.56,-256.88 301.89,-274.13 275.96,-247.5 265.05,-236.29 277.24,-223.08 291.77,-212.85"/>
<polygon fill="black" stroke="black" points="293.45,-215.29 299.94,-206.91 289.64,-209.41 293.45,-215.29"/>
<text text-anchor="middle" x="296.59" y="-234.2" font-family="Times,serif" font-size="14.00">1&#45;2 2&#45;2</text>
</g>
<!-- v6865&#45;&gt;v6872 -->
<g id="edge26" class="edge">
<title>v6865&#45;&gt;v6872</title>
<path fill="none" stroke="black" d="M1001.15,-271.21C1006.11,-268.93 1011.49,-266.83 1016.71,-265.5 1049.82,-257.05 1300.27,-272.36 1323.71,-247.5 1339.78,-230.47 1311.51,-215.61 1285.61,-206.29"/>
<polygon fill="black" stroke="black" points="1287.12,-202.77 1276.53,-202.88 1284.88,-209.4 1287.12,-202.77"/>
<text text-anchor="middle" x="1347.59" y="-234.2" font-family="Times,serif" font-size="14.00">1&#45;2 2&#45;3</text>
</g>
<!-- v6865&#45;&gt;v6873 -->
<g id="edge27" class="edge">
<title>v6865&#45;&gt;v6873</title>
<path fill="none" stroke="black" d="M960.29,-271.18C955.33,-268.9 949.94,-266.81 944.71,-265.5 906.54,-255.92 618.07,-276.03 590.96,-247.5 582.63,-238.73 588.16,-227.2 596.6,-217.27"/>
<polygon fill="black" stroke="black" points="598.75,-220.04 603.15,-210.4 593.7,-215.2 598.75,-220.04"/>
<text text-anchor="middle" x="611.59" y="-234.2" font-family="Times,serif" font-size="14.00">1&#45;2 2&#45;4</text>
</g>
<!-- v6866&#45;&gt;v6869 -->
<g id="edge28" class="edge">
<title>v6866&#45;&gt;v6869</title>
<path fill="none" stroke="black" d="M904.45,-265.29C902.72,-255.03 901.95,-241.93 905.96,-231 907.65,-226.41 910.23,-222.02 913.19,-217.98"/>
<polygon fill="black" stroke="black" points="916.31,-220.71 920.04,-210.8 910.94,-216.21 916.31,-220.71"/>
<text text-anchor="middle" x="925.59" y="-234.2" font-family="Times,serif" font-size="14.00">1&#45;3 2&#45;0</text>
</g>
<!-- v6866&#45;&gt;v6870 -->
<g id="edge29" class="edge">
<title>v6866&#45;&gt;v6870</title>
<path fill="none" stroke="black" d="M928.73,-271.26C933.8,-268.92 939.33,-266.78 944.71,-265.5 982.23,-256.57 1611.8,-275.12 1638.71,-247.5 1645.2,-240.84 1644.92,-231.31 1642.25,-222.25"/>
<polygon fill="black" stroke="black" points="1645.16,-221.08 1638.26,-213.03 1638.64,-223.62 1645.16,-221.08"/>
<text text-anchor="middle" x="1663.59" y="-234.2" font-family="Times,serif" font-size="14.00">1&#45;3 2&#45;1</text>
</g>
<!-- v6866&#45;&gt;v6871 -->
<g id="edge30" class="edge">
<title>v6866&#45;&gt;v6871</title>
<path fill="none" stroke="black" d="M888.69,-271.26C883.62,-268.92 878.09,-266.78 872.71,-265.5 837.05,-256.99 238.53,-273.78 212.96,-247.5 188.27,-222.13 243.92,-207.78 284.37,-200.98"/>
<polygon fill="black" stroke="black" points="284.71,-204.31 294.04,-199.3 283.61,-197.4 284.71,-204.31"/>
<text text-anchor="middle" x="233.59" y="-234.2" font-family="Times,serif" font-size="14.00">1&#45;3 2&#45;2</text>
</g>
<!-- v6866&#45;&gt;v6872 -->
<g id="edge31" class="edge">
<title>v6866&#45;&gt;v6872</title>
<path fill="none" stroke="black" d="M929.14,-271.2C934.1,-268.93 939.49,-266.83 944.71,-265.5 978.79,-256.83 1236.56,-273.06 1260.71,-247.5 1267.1,-240.74 1266.8,-231.19 1264.14,-222.14"/>
<polygon fill="black" stroke="black" points="1267.06,-221 1260.18,-212.95 1260.54,-223.54 1267.06,-221"/>
<text text-anchor="middle" x="1285.59" y="-234.2" font-family="Times,serif" font-size="14.00">1&#45;3 2&#45;3</text>
</g>
<!-- v6866&#45;&gt;v6873 -->
<g id="edge32" class="edge">
<title>v6866&#45;&gt;v6873</title>
<path fill="none" stroke="black" d="M888.28,-271.18C883.32,-268.91 877.94,-266.82 872.71,-265.5 835.52,-256.13 554.37,-275.32 527.96,-247.5 507.42,-225.86 550,-210.99 584.05,-202.98"/>
<polygon fill="black" stroke="black" points="584.71,-206.2 593.72,-200.62 583.2,-199.37 584.71,-206.2"/>
<text text-anchor="middle" x="548.59" y="-234.2" font-family="Times,serif" font-size="14.00">1&#45;3 2&#45;4</text>
</g>
<!-- v6867&#45;&gt;v6869 -->
<g id="edge33" class="edge">
<title>v6867&#45;&gt;v6869</title>
<path fill="none" stroke="black" d="M773.24,-266.24C780.07,-254.75 790.69,-239.88 803.96,-231 832.18,-212.12 870.15,-203.41 898.07,-199.4"/>
<polygon fill="black" stroke="black" points="898.15,-202.79 907.62,-198.04 897.25,-195.85 898.15,-202.79"/>
<text text-anchor="middle" x="823.59" y="-234.2" font-family="Times,serif" font-size="14.00">1&#45;4 2&#45;0</text>
</g>
<!-- v6867&#45;&gt;v6870 -->
<g id="edge34" class="edge">
<title>v6867&#45;&gt;v6870</title>
<path fill="none" stroke="black" d="M784.73,-271.26C789.8,-268.92 795.33,-266.78 800.71,-265.5 949.06,-230.18 1336.9,-275.99 1486.71,-247.5 1507.74,-243.5 1511.84,-238.31 1531.96,-231 1552.87,-223.4 1576.34,-214.92 1594.92,-208.2"/>
<polygon fill="black" stroke="black" points="1596.03,-211.16 1604.25,-204.47 1593.65,-204.58 1596.03,-211.16"/>
<text text-anchor="middle" x="1551.59" y="-234.2" font-family="Times,serif" font-size="14.00">1&#45;4 2&#45;1</text>
</g>
<!-- v6867&#45;&gt;v6871 -->
<g id="edge35" class="edge">
<title>v6867&#45;&gt;v6871</title>
<path fill="none" stroke="black" d="M737.49,-282.13C613.79,-280.32 109.73,-271.47 86.96,-247.5 81.91,-242.18 82.17,-236.55 86.96,-231 111.86,-202.12 223.45,-196.7 283.37,-195.92"/>
<polygon fill="black" stroke="black" points="283.31,-199.41 293.28,-195.82 283.24,-192.41 283.31,-199.41"/>
<text text-anchor="middle" x="107.59" y="-234.2" font-family="Times,serif" font-size="14.00">1&#45;4 2&#45;2</text>
</g>
<!-- v6867&#45;&gt;v6872 -->
<g id="edge36" class="edge">
<title>v6867&#45;&gt;v6872</title>
<path fill="none" stroke="black" d="M785.14,-271.19C790.1,-268.91 795.48,-266.82 800.71,-265.5 872.78,-247.29 1065.72,-275.16 1134.71,-247.5 1145.17,-243.31 1144.23,-236.68 1153.96,-231 1173.14,-219.82 1196.51,-211.24 1215.47,-205.38"/>
<polygon fill="black" stroke="black" points="1216.18,-208.52 1224.78,-202.32 1214.19,-201.81 1216.18,-208.52"/>
<text text-anchor="middle" x="1173.59" y="-234.2" font-family="Times,serif" font-size="14.00">1&#45;4 2&#45;3</text>
</g>
<!-- v6867&#45;&gt;v6873 -->
<g id="edge37" class="edge">
<title>v6867&#45;&gt;v6873</title>
<path fill="none" stroke="black" d="M737.39,-281.93C656.83,-279.98 424.43,-272.24 401.96,-247.5 397.03,-242.07 397.2,-236.58 401.96,-231 424.72,-204.31 526.13,-197.88 582.54,-196.4"/>
<polygon fill="black" stroke="black" points="582.59,-199.87 592.51,-196.15 582.44,-192.88 582.59,-199.87"/>
<text text-anchor="middle" x="422.59" y="-234.2" font-family="Times,serif" font-size="14.00">1&#45;4 2&#45;4</text>
</g>
<!-- v6868&#45;&gt;v6869 -->
<g id="edge38" class="edge">
<title>v6868&#45;&gt;v6869</title>
<path fill="none" stroke="black" d="M1326.98,-281.17C1375.8,-277.87 1470.07,-266.77 1436.71,-231 1432.76,-226.76 1089.62,-205.41 973.57,-198.3"/>
<polygon fill="black" stroke="black" points="973.95,-194.76 963.76,-197.64 973.53,-201.75 973.95,-194.76"/>
<text text-anchor="middle" x="1462.59" y="-234.2" font-family="Times,serif" font-size="14.00">1&#45;5 2&#45;0</text>
</g>
<!-- v6868&#45;&gt;v6870 -->
<g id="edge39" class="edge">
<title>v6868&#45;&gt;v6870</title>
<path fill="none" stroke="black" d="M1326.81,-281.87C1438.19,-279.16 1855.71,-267.69 1874.71,-247.5 1879.74,-242.16 1879.52,-236.54 1874.71,-231 1848.29,-200.56 1729.37,-195.91 1667.06,-195.62"/>
<polygon fill="black" stroke="black" points="1667.12,-192.12 1657.12,-195.61 1667.12,-199.12 1667.12,-192.12"/>
<text text-anchor="middle" x="1897.59" y="-234.2" font-family="Times,serif" font-size="14.00">1&#45;5 2&#45;1</text>
</g>
<!-- v6868&#45;&gt;v6871 -->
<g id="edge40" class="edge">
<title>v6868&#45;&gt;v6871</title>
<path fill="none" stroke="black" d="M1272.75,-280.08C1232.65,-276.54 1154.9,-269.89 1088.71,-265.5 935.17,-255.32 894.14,-276.2 742.96,-247.5 720.28,-243.19 716.3,-235.78 693.71,-231 573.73,-205.61 428.07,-198.63 360.1,-196.72"/>
<polygon fill="black" stroke="black" points="360.19,-193.19 350.11,-196.44 360.01,-200.19 360.19,-193.19"/>
<text text-anchor="middle" x="763.59" y="-234.2" font-family="Times,serif" font-size="14.00">1&#45;5 2&#45;2</text>
</g>
<!-- v6868&#45;&gt;v6872 -->
<g id="edge41" class="edge">
<title>v6868&#45;&gt;v6872</title>
<path fill="none" stroke="black" d="M1327.1,-282.82C1430.55,-283.73 1793.3,-284.27 1827.71,-247.5 1832.72,-242.15 1832.74,-236.34 1827.71,-231 1823.07,-226.07 1416.47,-204.59 1288.69,-197.96"/>
<polygon fill="black" stroke="black" points="1289.07,-194.42 1278.9,-197.4 1288.71,-201.41 1289.07,-194.42"/>
<text text-anchor="middle" x="1850.59" y="-234.2" font-family="Times,serif" font-size="14.00">1&#45;5 2&#45;3</text>
</g>
<!-- v6868&#45;&gt;v6873 -->
<g id="edge42" class="edge">
<title>v6868&#45;&gt;v6873</title>
<path fill="none" stroke="black" d="M1272.69,-281.65C1231.92,-279.56 1152.86,-272.35 1090.96,-247.5 1078.86,-242.64 1079.01,-235.32 1066.71,-231 1047.6,-224.28 763.3,-205.26 658.84,-198.46"/>
<polygon fill="black" stroke="black" points="659.08,-194.9 648.87,-197.74 658.63,-201.89 659.08,-194.9"/>
<text text-anchor="middle" x="1110.59" y="-234.2" font-family="Times,serif" font-size="14.00">1&#45;5 2&#45;4</text>
</g>
<!-- v6874 -->
<g id="node14" class="node">
<title>v6874</title>
<ellipse fill="none" stroke="black" cx="726.71" cy="-106.5" rx="27" ry="18"/>
<text text-anchor="middle" x="726.71" y="-101.45" font-family="Times,serif" font-size="14.00">3&#45;0</text>
</g>
<!-- v6869&#45;&gt;v6874 -->
<g id="edge43" class="edge">
<title>v6869&#45;&gt;v6874</title>
<path fill="none" stroke="black" d="M908.28,-194.18C852.19,-193.9 727.46,-189.74 700.96,-159 693.67,-150.54 697.65,-139.64 704.46,-130.06"/>
<polygon fill="black" stroke="black" points="707.64,-132.69 711.26,-122.73 702.22,-128.26 707.64,-132.69"/>
<text text-anchor="middle" x="721.59" y="-145.7" font-family="Times,serif" font-size="14.00">2&#45;0 3&#45;0</text>
</g>
<!-- v6876 -->
<g id="node15" class="node">
<title>v6876</title>
<ellipse fill="none" stroke="black" cx="1612.71" cy="-106.5" rx="27" ry="18"/>
<text text-anchor="middle" x="1612.71" y="-101.45" font-family="Times,serif" font-size="14.00">3&#45;1</text>
</g>
<!-- v6869&#45;&gt;v6876 -->
<g id="edge44" class="edge">
<title>v6869&#45;&gt;v6876</title>
<path fill="none" stroke="black" d="M962.64,-192.21C1012.4,-188.93 1122.15,-181.86 1214.71,-177 1237.37,-175.81 1607.03,-175.39 1622.71,-159 1629.14,-152.28 1628.85,-142.74 1626.18,-133.68"/>
<polygon fill="black" stroke="black" points="1629.1,-132.53 1622.21,-124.48 1622.58,-135.07 1629.1,-132.53"/>
<text text-anchor="middle" x="1647.59" y="-145.7" font-family="Times,serif" font-size="14.00">2&#45;0 3&#45;1</text>
</g>
<!-- v6878 -->
<g id="node16" class="node">
<title>v6878</title>
<ellipse fill="none" stroke="black" cx="1297.71" cy="-106.5" rx="27" ry="18"/>
<text text-anchor="middle" x="1297.71" y="-101.45" font-family="Times,serif" font-size="14.00">3&#45;2</text>
</g>
<!-- v6869&#45;&gt;v6878 -->
<g id="edge45" class="edge">
<title>v6869&#45;&gt;v6878</title>
<path fill="none" stroke="black" d="M962.69,-192.45C1046.28,-187.52 1296.09,-171.77 1307.71,-159 1313.88,-152.22 1313.66,-142.82 1311.11,-133.9"/>
<polygon fill="black" stroke="black" points="1314.11,-132.94 1307.3,-124.83 1307.57,-135.42 1314.11,-132.94"/>
<text text-anchor="middle" x="1332.59" y="-145.7" font-family="Times,serif" font-size="14.00">2&#45;0 3&#45;2</text>
</g>
<!-- v6880 -->
<g id="node17" class="node">
<title>v6880</title>
<ellipse fill="none" stroke="black" cx="415.71" cy="-106.5" rx="27" ry="18"/>
<text text-anchor="middle" x="415.71" y="-101.45" font-family="Times,serif" font-size="14.00">3&#45;3</text>
</g>
<!-- v6869&#45;&gt;v6880 -->
<g id="edge46" class="edge">
<title>v6869&#45;&gt;v6880</title>
<path fill="none" stroke="black" d="M908.51,-192.33C797.83,-185.53 387.09,-160.21 385.96,-159 377.68,-150.18 383.22,-138.64 391.65,-128.72"/>
<polygon fill="black" stroke="black" points="393.79,-131.51 398.18,-121.87 388.74,-126.66 393.79,-131.51"/>
<text text-anchor="middle" x="406.59" y="-145.7" font-family="Times,serif" font-size="14.00">2&#45;0 3&#45;3</text>
</g>
<!-- v6882 -->
<g id="node18" class="node">
<title>v6882</title>
<ellipse fill="none" stroke="black" cx="982.71" cy="-106.5" rx="27" ry="18"/>
<text text-anchor="middle" x="982.71" y="-101.45" font-family="Times,serif" font-size="14.00">3&#45;4</text>
</g>
<!-- v6869&#45;&gt;v6882 -->
<g id="edge47" class="edge">
<title>v6869&#45;&gt;v6882</title>
<path fill="none" stroke="black" d="M959.35,-185.97C971.65,-180.45 985.57,-171.77 992.71,-159 996.92,-151.48 996.65,-142.49 994.64,-134.14"/>
<polygon fill="black" stroke="black" points="997.67,-133.13 991.23,-124.71 991.01,-135.31 997.67,-133.13"/>
<text text-anchor="middle" x="1015.59" y="-145.7" font-family="Times,serif" font-size="14.00">2&#45;0 3&#45;4</text>
</g>
<!-- v6884 -->
<g id="node19" class="node">
<title>v6884</title>
<ellipse fill="none" stroke="black" cx="164.71" cy="-106.5" rx="27" ry="18"/>
<text text-anchor="middle" x="164.71" y="-101.45" font-family="Times,serif" font-size="14.00">3&#45;5</text>
</g>
<!-- v6869&#45;&gt;v6884 -->
<g id="edge48" class="edge">
<title>v6869&#45;&gt;v6884</title>
<path fill="none" stroke="black" d="M908.79,-192.12C859.03,-188.7 749.29,-181.41 656.71,-177 627.69,-175.62 154.15,-179.9 133.96,-159 125.4,-150.14 131.33,-138.46 140.18,-128.47"/>
<polygon fill="black" stroke="black" points="142.12,-131.46 146.68,-121.9 137.15,-126.54 142.12,-131.46"/>
<text text-anchor="middle" x="154.59" y="-145.7" font-family="Times,serif" font-size="14.00">2&#45;0 3&#45;5</text>
</g>
<!-- v6870&#45;&gt;v6874 -->
<g id="edge49" class="edge">
<title>v6870&#45;&gt;v6874</title>
<path fill="none" stroke="black" d="M1601.61,-192.91C1505.62,-188.91 1185.27,-174.54 1141.96,-159 1130.04,-154.72 1130.6,-146.88 1118.71,-142.5 1102.25,-136.43 859.85,-117.57 764.67,-110.35"/>
<polygon fill="black" stroke="black" points="765.06,-106.79 754.82,-109.53 764.53,-113.77 765.06,-106.79"/>
<text text-anchor="middle" x="1161.59" y="-145.7" font-family="Times,serif" font-size="14.00">2&#45;1 3&#45;0</text>
</g>
<!-- v6870&#45;&gt;v6876 -->
<g id="edge50" class="edge">
<title>v6870&#45;&gt;v6876</title>
<path fill="none" stroke="black" d="M1655.75,-192.9C1701.77,-190.41 1792.23,-182.56 1811.71,-159 1816.38,-153.35 1816.43,-148.12 1811.71,-142.5 1791.54,-118.47 1702.4,-110.93 1650.52,-108.57"/>
<polygon fill="black" stroke="black" points="1650.88,-105.04 1640.75,-108.13 1650.59,-112.04 1650.88,-105.04"/>
<text text-anchor="middle" x="1834.59" y="-145.7" font-family="Times,serif" font-size="14.00">2&#45;1 3&#45;1</text>
</g>
<!-- v6870&#45;&gt;v6878 -->
<g id="edge51" class="edge">
<title>v6870&#45;&gt;v6878</title>
<path fill="none" stroke="black" d="M1655.74,-191.65C1699.37,-186.89 1777.66,-173.78 1748.71,-142.5 1741.72,-134.94 1443.13,-116.26 1335.71,-109.76"/>
<polygon fill="black" stroke="black" points="1335.95,-106.21 1325.75,-109.11 1335.52,-113.2 1335.95,-106.21"/>
<text text-anchor="middle" x="1774.59" y="-145.7" font-family="Times,serif" font-size="14.00">2&#45;1 3&#45;2</text>
</g>
<!-- v6870&#45;&gt;v6880 -->
<g id="edge52" class="edge">
<title>v6870&#45;&gt;v6880</title>
<path fill="none" stroke="black" d="M1601.67,-192.56C1543.87,-189.49 1404.01,-182.19 1286.71,-177 1235.2,-174.72 870.97,-177.83 822.96,-159 812.47,-154.89 814.09,-146.88 803.71,-142.5 772,-129.12 545.43,-114.89 453.91,-109.62"/>
<polygon fill="black" stroke="black" points="454.12,-106.07 443.94,-108.99 453.72,-113.06 454.12,-106.07"/>
<text text-anchor="middle" x="842.59" y="-145.7" font-family="Times,serif" font-size="14.00">2&#45;1 3&#45;3</text>
</g>
<!-- v6870&#45;&gt;v6882 -->
<g id="edge53" class="edge">
<title>v6870&#45;&gt;v6882</title>
<path fill="none" stroke="black" d="M1602.41,-190.29C1568.37,-185.12 1507.41,-174.58 1456.96,-159 1438.88,-153.42 1436.1,-146.98 1417.71,-142.5 1379.7,-133.23 1119.8,-116.13 1020.85,-109.87"/>
<polygon fill="black" stroke="black" points="1021.08,-106.32 1010.88,-109.18 1020.64,-113.3 1021.08,-106.32"/>
<text text-anchor="middle" x="1476.59" y="-145.7" font-family="Times,serif" font-size="14.00">2&#45;1 3&#45;4</text>
</g>
<!-- v6870&#45;&gt;v6884 -->
<g id="edge54" class="edge">
<title>v6870&#45;&gt;v6884</title>
<path fill="none" stroke="black" d="M1601.68,-192.41C1543.89,-189.07 1404.04,-181.27 1286.71,-177 1243.47,-175.43 548.37,-174.48 507.96,-159 497.44,-154.97 499.05,-146.97 488.71,-142.5 462.92,-131.35 282.05,-116.43 202.32,-110.3"/>
<polygon fill="black" stroke="black" points="203,-106.77 192.76,-109.5 202.47,-113.75 203,-106.77"/>
<text text-anchor="middle" x="528.59" y="-145.7" font-family="Times,serif" font-size="14.00">2&#45;1 3&#45;5</text>
</g>
<!-- v6871&#45;&gt;v6874 -->
<g id="edge55" class="edge">
<title>v6871&#45;&gt;v6874</title>
<path fill="none" stroke="black" d="M348.88,-192.58C392.55,-189.71 480.65,-181.44 551.71,-159 567.44,-154.03 569.47,-148.18 584.96,-142.5 619.78,-129.74 661.1,-120.13 690.12,-114.24"/>
<polygon fill="black" stroke="black" points="690.47,-117.54 699.6,-112.17 689.11,-110.67 690.47,-117.54"/>
<text text-anchor="middle" x="605.59" y="-145.7" font-family="Times,serif" font-size="14.00">2&#45;2 3&#45;0</text>
</g>
<!-- v6871&#45;&gt;v6876 -->
<g id="edge56" class="edge">
<title>v6871&#45;&gt;v6876</title>
<path fill="none" stroke="black" d="M348.57,-191.86C396.14,-188.17 498.31,-180.64 584.71,-177 635.34,-174.87 1449.36,-177.05 1496.71,-159 1507.24,-154.99 1506.23,-148.18 1515.96,-142.5 1535.14,-131.32 1558.51,-122.74 1577.47,-116.88"/>
<polygon fill="black" stroke="black" points="1578.18,-120.02 1586.78,-113.82 1576.19,-113.31 1578.18,-120.02"/>
<text text-anchor="middle" x="1535.59" y="-145.7" font-family="Times,serif" font-size="14.00">2&#45;2 3&#45;1</text>
</g>
<!-- v6871&#45;&gt;v6878 -->
<g id="edge57" class="edge">
<title>v6871&#45;&gt;v6878</title>
<path fill="none" stroke="black" d="M348.58,-191.96C396.15,-188.41 498.33,-181.09 584.71,-177 651,-173.86 1119.82,-182.96 1181.71,-159 1192.22,-154.93 1191.23,-148.18 1200.96,-142.5 1220.14,-131.32 1243.51,-122.74 1262.47,-116.88"/>
<polygon fill="black" stroke="black" points="1263.18,-120.02 1271.78,-113.82 1261.19,-113.31 1263.18,-120.02"/>
<text text-anchor="middle" x="1220.59" y="-145.7" font-family="Times,serif" font-size="14.00">2&#45;2 3&#45;2</text>
</g>
<!-- v6871&#45;&gt;v6880 -->
<g id="edge58" class="edge">
<title>v6871&#45;&gt;v6880</title>
<path fill="none" stroke="black" d="M297.98,-185.75C275.02,-176.48 245.66,-160.38 259.96,-142.5 274.48,-124.36 336.76,-114.97 378.04,-110.65"/>
<polygon fill="black" stroke="black" points="378.2,-114.05 387.81,-109.58 377.51,-107.09 378.2,-114.05"/>
<text text-anchor="middle" x="280.59" y="-145.7" font-family="Times,serif" font-size="14.00">2&#45;2 3&#45;3</text>
</g>
<!-- v6871&#45;&gt;v6882 -->
<g id="edge59" class="edge">
<title>v6871&#45;&gt;v6882</title>
<path fill="none" stroke="black" d="M348.59,-192.26C396.19,-189.17 498.41,-182.54 584.71,-177 647.38,-172.97 808.54,-182.65 866.71,-159 877.15,-154.76 876.23,-148.18 885.96,-142.5 905.14,-131.32 928.51,-122.74 947.47,-116.88"/>
<polygon fill="black" stroke="black" points="948.18,-120.02 956.78,-113.82 946.19,-113.31 948.18,-120.02"/>
<text text-anchor="middle" x="905.59" y="-145.7" font-family="Times,serif" font-size="14.00">2&#45;2 3&#45;4</text>
</g>
<!-- v6871&#45;&gt;v6884 -->
<g id="edge60" class="edge">
<title>v6871&#45;&gt;v6884</title>
<path fill="none" stroke="black" d="M294.5,-193C221.74,-190.05 26.94,-180.22 7.96,-159 -27.31,-119.57 69.89,-110.23 126.79,-108.08"/>
<polygon fill="black" stroke="black" points="126.69,-111.56 136.58,-107.74 126.47,-104.56 126.69,-111.56"/>
<text text-anchor="middle" x="28.59" y="-145.7" font-family="Times,serif" font-size="14.00">2&#45;2 3&#45;5</text>
</g>
<!-- v6872&#45;&gt;v6874 -->
<g id="edge61" class="edge">
<title>v6872&#45;&gt;v6874</title>
<path fill="none" stroke="black" d="M1223.78,-192.37C1123.11,-186.25 774.09,-164.64 763.96,-159 753.62,-153.24 745.41,-143.27 739.35,-133.62"/>
<polygon fill="black" stroke="black" points="742.01,-132.21 734.02,-125.26 735.93,-135.68 742.01,-132.21"/>
<text text-anchor="middle" x="783.59" y="-145.7" font-family="Times,serif" font-size="14.00">2&#45;3 3&#45;0</text>
</g>
<!-- v6872&#45;&gt;v6876 -->
<g id="edge62" class="edge">
<title>v6872&#45;&gt;v6876</title>
<path fill="none" stroke="black" d="M1277.91,-192.82C1371,-188.65 1671.82,-174.05 1685.71,-159 1701.52,-141.87 1673.61,-127.1 1647.86,-117.83"/>
<polygon fill="black" stroke="black" points="1649.05,-114.2 1638.46,-114.32 1646.81,-120.83 1649.05,-114.2"/>
<text text-anchor="middle" x="1709.59" y="-145.7" font-family="Times,serif" font-size="14.00">2&#45;3 3&#45;1</text>
</g>
<!-- v6872&#45;&gt;v6878 -->
<g id="edge63" class="edge">
<title>v6872&#45;&gt;v6878</title>
<path fill="none" stroke="black" d="M1278.05,-194.71C1306.38,-193.79 1349.42,-187.39 1370.71,-159 1384.47,-140.65 1357.98,-126.32 1333.14,-117.48"/>
<polygon fill="black" stroke="black" points="1334.32,-113.85 1323.72,-114.04 1332.12,-120.5 1334.32,-113.85"/>
<text text-anchor="middle" x="1393.59" y="-145.7" font-family="Times,serif" font-size="14.00">2&#45;3 3&#45;2</text>
</g>
<!-- v6872&#45;&gt;v6880 -->
<g id="edge64" class="edge">
<title>v6872&#45;&gt;v6880</title>
<path fill="none" stroke="black" d="M1223.79,-192.12C1174.03,-188.7 1064.29,-181.41 971.71,-177 942.69,-175.62 474.24,-173.34 448.96,-159 439.14,-153.43 431.74,-143.62 426.45,-134.05"/>
<polygon fill="black" stroke="black" points="429.24,-132.79 421.69,-125.36 422.96,-135.87 429.24,-132.79"/>
<text text-anchor="middle" x="469.59" y="-145.7" font-family="Times,serif" font-size="14.00">2&#45;3 3&#45;3</text>
</g>
<!-- v6872&#45;&gt;v6882 -->
<g id="edge65" class="edge">
<title>v6872&#45;&gt;v6882</title>
<path fill="none" stroke="black" d="M1223.87,-190.98C1189.51,-186.57 1128.48,-176.86 1078.96,-159 1054.93,-150.33 1029.53,-136.52 1010.86,-125.38"/>
<polygon fill="black" stroke="black" points="1012.85,-121.88 1002.49,-119.67 1009.21,-127.86 1012.85,-121.88"/>
<text text-anchor="middle" x="1098.59" y="-145.7" font-family="Times,serif" font-size="14.00">2&#45;3 3&#45;4</text>
</g>
<!-- v6872&#45;&gt;v6884 -->
<g id="edge66" class="edge">
<title>v6872&#45;&gt;v6884</title>
<path fill="none" stroke="black" d="M1223.8,-192.03C1174.04,-188.45 1064.32,-180.92 971.71,-177 929.58,-175.22 251.45,-176.23 212.96,-159 200.16,-153.27 189.16,-142.37 180.91,-132.06"/>
<polygon fill="black" stroke="black" points="183.17,-130.24 174.39,-124.31 177.56,-134.42 183.17,-130.24"/>
<text text-anchor="middle" x="233.59" y="-145.7" font-family="Times,serif" font-size="14.00">2&#45;3 3&#45;5</text>
</g>
<!-- v6873&#45;&gt;v6874 -->
<g id="edge67" class="edge">
<title>v6873&#45;&gt;v6874</title>
<path fill="none" stroke="black" d="M622.71,-176.79C624.82,-165.76 629.13,-151.8 637.96,-142.5 651.65,-128.07 672.02,-119.48 689.8,-114.42"/>
<polygon fill="black" stroke="black" points="690.62,-117.57 699.45,-111.71 688.89,-110.79 690.62,-117.57"/>
<text text-anchor="middle" x="658.59" y="-145.7" font-family="Times,serif" font-size="14.00">2&#45;4 3&#45;0</text>
</g>
<!-- v6873&#45;&gt;v6876 -->
<g id="edge68" class="edge">
<title>v6873&#45;&gt;v6876</title>
<path fill="none" stroke="black" d="M647.63,-192.06C697.38,-188.54 807.11,-181.08 899.71,-177 936.36,-175.38 1525.92,-173.26 1559.71,-159 1563.7,-157.32 1578.22,-143.09 1591.05,-130.02"/>
<polygon fill="black" stroke="black" points="1593.25,-132.75 1597.72,-123.15 1588.23,-127.87 1593.25,-132.75"/>
<text text-anchor="middle" x="1596.59" y="-145.7" font-family="Times,serif" font-size="14.00">2&#45;4 3&#45;1</text>
</g>
<!-- v6873&#45;&gt;v6878 -->
<g id="edge69" class="edge">
<title>v6873&#45;&gt;v6878</title>
<path fill="none" stroke="black" d="M647.64,-192.28C697.41,-189.12 807.17,-182.23 899.71,-177 938.04,-174.83 1209.53,-174.36 1244.71,-159 1248.68,-157.27 1263.2,-143.04 1276.04,-129.98"/>
<polygon fill="black" stroke="black" points="1278.23,-132.73 1282.71,-123.12 1273.22,-127.84 1278.23,-132.73"/>
<text text-anchor="middle" x="1281.59" y="-145.7" font-family="Times,serif" font-size="14.00">2&#45;4 3&#45;2</text>
</g>
<!-- v6873&#45;&gt;v6880 -->
<g id="edge70" class="edge">
<title>v6873&#45;&gt;v6880</title>
<path fill="none" stroke="black" d="M593.62,-192.83C523.6,-189.54 340.82,-179.08 322.96,-159 303.19,-136.77 345.29,-122.09 379.06,-114.28"/>
<polygon fill="black" stroke="black" points="379.61,-117.53 388.64,-111.99 378.13,-110.69 379.61,-117.53"/>
<text text-anchor="middle" x="343.59" y="-145.7" font-family="Times,serif" font-size="14.00">2&#45;4 3&#45;3</text>
</g>
<!-- v6873&#45;&gt;v6882 -->
<g id="edge71" class="edge">
<title>v6873&#45;&gt;v6882</title>
<path fill="none" stroke="black" d="M647.62,-193.17C713.27,-190.79 879.93,-182.55 929.71,-159 933.63,-157.15 948.15,-142.93 961,-129.9"/>
<polygon fill="black" stroke="black" points="963.18,-132.66 967.68,-123.07 958.18,-127.76 963.18,-132.66"/>
<text text-anchor="middle" x="966.59" y="-145.7" font-family="Times,serif" font-size="14.00">2&#45;4 3&#45;4</text>
</g>
<!-- v6873&#45;&gt;v6884 -->
<g id="edge72" class="edge">
<title>v6873&#45;&gt;v6884</title>
<path fill="none" stroke="black" d="M593.83,-192.25C546.24,-189.14 444.01,-182.5 357.71,-177 325.85,-174.97 92.82,-182.27 70.96,-159 50.28,-136.98 93.74,-122.15 128.17,-114.26"/>
<polygon fill="black" stroke="black" points="128.45,-117.57 137.49,-112.04 126.97,-110.73 128.45,-117.57"/>
<text text-anchor="middle" x="91.59" y="-145.7" font-family="Times,serif" font-size="14.00">2&#45;4 3&#45;5</text>
</g>
<!-- v6874&#45;&gt;v6861 -->
<g id="edge1" class="edge">
<title>v6874&#45;&gt;v6861</title>
<path fill="none" stroke="black" d="M739.25,-90.43C750.1,-77.4 765.97,-58.33 778.59,-43.17"/>
<polygon fill="black" stroke="black" points="781.88,-45.7 785.58,-35.77 776.5,-41.22 781.88,-45.7"/>
<text text-anchor="middle" x="775.09" y="-57.2" font-family="Times,serif" font-size="14.00">e0</text>
</g>
<!-- v6876&#45;&gt;v6861 -->
<g id="edge2" class="edge">
<title>v6876&#45;&gt;v6861</title>
<path fill="none" stroke="black" d="M1586.09,-102.67C1467.39,-90.06 985.86,-38.89 840.47,-23.44"/>
<polygon fill="black" stroke="black" points="841.12,-19.88 830.81,-22.3 840.38,-26.84 841.12,-19.88"/>
<text text-anchor="middle" x="1284.09" y="-57.2" font-family="Times,serif" font-size="14.00">e1</text>
</g>
<!-- v6878&#45;&gt;v6861 -->
<g id="edge3" class="edge">
<title>v6878&#45;&gt;v6861</title>
<path fill="none" stroke="black" d="M1271.59,-100.97C1189.91,-86.81 938.93,-43.31 839.7,-26.1"/>
<polygon fill="black" stroke="black" points="840.37,-22.5 829.92,-24.24 839.18,-29.39 840.37,-22.5"/>
<text text-anchor="middle" x="1099.09" y="-57.2" font-family="Times,serif" font-size="14.00">e2</text>
</g>
<!-- v6880&#45;&gt;v6861 -->
<g id="edge4" class="edge">
<title>v6880&#45;&gt;v6861</title>
<path fill="none" stroke="black" d="M441.14,-99.76C506.4,-85.02 680.22,-45.76 758.96,-27.98"/>
<polygon fill="black" stroke="black" points="759.43,-31.23 768.42,-25.62 757.89,-24.41 759.43,-31.23"/>
<text text-anchor="middle" x="648.09" y="-57.2" font-family="Times,serif" font-size="14.00">e3</text>
</g>
<!-- v6882&#45;&gt;v6861 -->
<g id="edge5" class="edge">
<title>v6882&#45;&gt;v6861</title>
<path fill="none" stroke="black" d="M961.24,-95.41C929.48,-80.48 869.69,-52.37 832.15,-34.72"/>
<polygon fill="black" stroke="black" points="834.19,-31.34 823.66,-30.26 831.22,-37.68 834.19,-31.34"/>
<text text-anchor="middle" x="913.09" y="-57.2" font-family="Times,serif" font-size="14.00">e4</text>
</g>
<!-- v6884&#45;&gt;v6861 -->
<g id="edge6" class="edge">
<title>v6884&#45;&gt;v6861</title>
<path fill="none" stroke="black" d="M191.15,-101.89C289.78,-88.44 636.78,-41.09 757.19,-24.67"/>
<polygon fill="black" stroke="black" points="757.35,-28.04 766.79,-23.22 756.41,-21.1 757.35,-28.04"/>
<text text-anchor="middle" x="545.09" y="-57.2" font-family="Times,serif" font-size="14.00">e5</text>
</g>
<!-- \n -->
<g id="node20" class="node">
<title>\n</title>
<ellipse fill="none" stroke="black" cx="1013.71" cy="-372" rx="27" ry="18"/>
</g>
</g>
</svg>
