<?xml version="1.0" encoding="UTF-8" standalone="no"?>
<!DOCTYPE svg PUBLIC "-//W3C//DTD SVG 1.1//EN"
 "http://www.w3.org/Graphics/SVG/1.1/DTD/svg11.dtd">
<!-- Generated by graphviz version 8.1.0 (20230707.0739)
 -->
<!-- Title: GraphOfConvexSets Pages: 1 -->
<svg width="2283pt" height="398pt"
 viewBox="0.00 0.00 2283.12 398.00" xmlns="http://www.w3.org/2000/svg" xmlns:xlink="http://www.w3.org/1999/xlink">
<g id="graph0" class="graph" transform="scale(1 1) rotate(0) translate(4 394)">
<title>GraphOfConvexSets</title>
<polygon fill="white" stroke="none" points="-4,4 -4,-394 2279.12,-394 2279.12,4 -4,4"/>
<!-- v3050 -->
<g id="node1" class="node">
<title>v3050</title>
<ellipse fill="none" stroke="black" cx="972.37" cy="-18" rx="31.9" ry="18"/>
<text text-anchor="middle" x="972.37" y="-12.95" font-family="Times,serif" font-size="14.00">target</text>
</g>
<!-- v3051 -->
<g id="node2" class="node">
<title>v3051</title>
<ellipse fill="none" stroke="black" cx="1272.37" cy="-372" rx="27" ry="18"/>
<text text-anchor="middle" x="1272.37" y="-366.95" font-family="Times,serif" font-size="14.00">0&#45;0</text>
</g>
<!-- v3052 -->
<g id="node3" class="node">
<title>v3052</title>
<ellipse fill="none" stroke="black" cx="1383.37" cy="-283.5" rx="27" ry="18"/>
<text text-anchor="middle" x="1383.37" y="-278.45" font-family="Times,serif" font-size="14.00">1&#45;0</text>
</g>
<!-- v3051&#45;&gt;v3052 -->
<g id="edge7" class="edge">
<title>v3051&#45;&gt;v3052</title>
<path fill="none" stroke="black" d="M1294.01,-360.59C1310.24,-352.58 1330.9,-341.92 1338.37,-336 1348.24,-328.18 1357.66,-317.99 1365.3,-308.75"/>
<polygon fill="black" stroke="black" points="1368.55,-311.28 1372.05,-301.28 1363.08,-306.92 1368.55,-311.28"/>
<text text-anchor="middle" x="1374.24" y="-322.7" font-family="Times,serif" font-size="14.00">0&#45;0 1&#45;0</text>
</g>
<!-- v3053 -->
<g id="node4" class="node">
<title>v3053</title>
<ellipse fill="none" stroke="black" cx="1239.37" cy="-283.5" rx="27" ry="18"/>
<text text-anchor="middle" x="1239.37" y="-278.45" font-family="Times,serif" font-size="14.00">1&#45;1</text>
</g>
<!-- v3051&#45;&gt;v3053 -->
<g id="edge8" class="edge">
<title>v3051&#45;&gt;v3053</title>
<path fill="none" stroke="black" d="M1258.78,-355.98C1254.2,-350.13 1249.52,-343.13 1246.62,-336 1243.64,-328.7 1241.85,-320.38 1240.78,-312.6"/>
<polygon fill="black" stroke="black" points="1244.18,-312.34 1239.69,-302.75 1237.21,-313.05 1244.18,-312.34"/>
<text text-anchor="middle" x="1266.24" y="-322.7" font-family="Times,serif" font-size="14.00">0&#45;0 1&#45;1</text>
</g>
<!-- v3054 -->
<g id="node5" class="node">
<title>v3054</title>
<ellipse fill="none" stroke="black" cx="1311.37" cy="-283.5" rx="27" ry="18"/>
<text text-anchor="middle" x="1311.37" y="-278.45" font-family="Times,serif" font-size="14.00">1&#45;2</text>
</g>
<!-- v3051&#45;&gt;v3054 -->
<g id="edge9" class="edge">
<title>v3051&#45;&gt;v3054</title>
<path fill="none" stroke="black" d="M1279.89,-354.32C1285.44,-342 1293.12,-324.97 1299.5,-310.82"/>
<polygon fill="black" stroke="black" points="1302.95,-312.68 1303.87,-302.13 1296.57,-309.8 1302.95,-312.68"/>
<text text-anchor="middle" x="1314.24" y="-322.7" font-family="Times,serif" font-size="14.00">0&#45;0 1&#45;2</text>
</g>
<!-- v3055 -->
<g id="node6" class="node">
<title>v3055</title>
<ellipse fill="none" stroke="black" cx="1095.37" cy="-283.5" rx="27" ry="18"/>
<text text-anchor="middle" x="1095.37" y="-278.45" font-family="Times,serif" font-size="14.00">1&#45;3</text>
</g>
<!-- v3051&#45;&gt;v3055 -->
<g id="edge10" class="edge">
<title>v3051&#45;&gt;v3055</title>
<path fill="none" stroke="black" d="M1245.57,-368.66C1217.36,-365.17 1172.55,-356.62 1139.62,-336 1128.6,-329.1 1118.87,-318.6 1111.35,-308.87"/>
<polygon fill="black" stroke="black" points="1113.82,-307.3 1105.1,-301.27 1108.16,-311.42 1113.82,-307.3"/>
<text text-anchor="middle" x="1159.24" y="-322.7" font-family="Times,serif" font-size="14.00">0&#45;0 1&#45;3</text>
</g>
<!-- v3056 -->
<g id="node7" class="node">
<title>v3056</title>
<ellipse fill="none" stroke="black" cx="1167.37" cy="-283.5" rx="27" ry="18"/>
<text text-anchor="middle" x="1167.37" y="-278.45" font-family="Times,serif" font-size="14.00">1&#45;4</text>
</g>
<!-- v3051&#45;&gt;v3056 -->
<g id="edge11" class="edge">
<title>v3051&#45;&gt;v3056</title>
<path fill="none" stroke="black" d="M1247.99,-363.79C1232.22,-358.18 1212.02,-349.12 1197.62,-336 1189.93,-329 1183.62,-319.58 1178.8,-310.72"/>
<polygon fill="black" stroke="black" points="1181.59,-309.47 1173.98,-302.1 1175.33,-312.61 1181.59,-309.47"/>
<text text-anchor="middle" x="1217.24" y="-322.7" font-family="Times,serif" font-size="14.00">0&#45;0 1&#45;4</text>
</g>
<!-- v3057 -->
<g id="node8" class="node">
<title>v3057</title>
<ellipse fill="none" stroke="black" cx="1455.37" cy="-283.5" rx="27" ry="18"/>
<text text-anchor="middle" x="1455.37" y="-278.45" font-family="Times,serif" font-size="14.00">1&#45;5</text>
</g>
<!-- v3051&#45;&gt;v3057 -->
<g id="edge12" class="edge">
<title>v3051&#45;&gt;v3057</title>
<path fill="none" stroke="black" d="M1293.33,-360.05C1298.18,-357.82 1303.38,-355.65 1308.37,-354 1347.1,-341.2 1361.93,-354.33 1398.37,-336 1412.28,-329 1425.36,-317.67 1435.47,-307.42"/>
<polygon fill="black" stroke="black" points="1437.6,-310.21 1441.91,-300.53 1432.5,-305.41 1437.6,-310.21"/>
<text text-anchor="middle" x="1440.24" y="-322.7" font-family="Times,serif" font-size="14.00">0&#45;0 1&#45;5</text>
</g>
<!-- v3058 -->
<g id="node9" class="node">
<title>v3058</title>
<ellipse fill="none" stroke="black" cx="600.37" cy="-195" rx="27" ry="18"/>
<text text-anchor="middle" x="600.37" y="-189.95" font-family="Times,serif" font-size="14.00">2&#45;0</text>
</g>
<!-- v3052&#45;&gt;v3058 -->
<g id="edge13" class="edge">
<title>v3052&#45;&gt;v3058</title>
<path fill="none" stroke="black" d="M1363.34,-271.25C1358.28,-268.92 1352.75,-266.78 1347.37,-265.5 1270.18,-247.17 702.8,-286.32 633.62,-247.5 623.77,-241.97 616.37,-232.18 611.08,-222.6"/>
<polygon fill="black" stroke="black" points="613.87,-221.33 606.32,-213.89 607.58,-224.41 613.87,-221.33"/>
<text text-anchor="middle" x="653.24" y="-234.2" font-family="Times,serif" font-size="14.00">1&#45;0 2&#45;0</text>
</g>
<!-- v3059 -->
<g id="node10" class="node">
<title>v3059</title>
<ellipse fill="none" stroke="black" cx="1986.37" cy="-195" rx="27" ry="18"/>
<text text-anchor="middle" x="1986.37" y="-189.95" font-family="Times,serif" font-size="14.00">2&#45;1</text>
</g>
<!-- v3052&#45;&gt;v3059 -->
<g id="edge14" class="edge">
<title>v3052&#45;&gt;v3059</title>
<path fill="none" stroke="black" d="M1403.39,-271.26C1408.45,-268.92 1413.99,-266.78 1419.37,-265.5 1457.38,-256.46 2095.1,-275.48 2122.37,-247.5 2153.9,-215.14 2074.88,-202.86 2024.47,-198.39"/>
<polygon fill="black" stroke="black" points="2024.83,-194.83 2014.58,-197.51 2024.26,-201.81 2024.83,-194.83"/>
<text text-anchor="middle" x="2149.24" y="-234.2" font-family="Times,serif" font-size="14.00">1&#45;0 2&#45;1</text>
</g>
<!-- v3060 -->
<g id="node11" class="node">
<title>v3060</title>
<ellipse fill="none" stroke="black" cx="1608.37" cy="-195" rx="27" ry="18"/>
<text text-anchor="middle" x="1608.37" y="-189.95" font-family="Times,serif" font-size="14.00">2&#45;2</text>
</g>
<!-- v3052&#45;&gt;v3060 -->
<g id="edge15" class="edge">
<title>v3052&#45;&gt;v3060</title>
<path fill="none" stroke="black" d="M1403.8,-271.19C1408.76,-268.92 1414.14,-266.82 1419.37,-265.5 1454.42,-256.61 1719.51,-273.77 1744.37,-247.5 1775.42,-214.68 1696.59,-202.58 1646.34,-198.27"/>
<polygon fill="black" stroke="black" points="1646.73,-194.71 1636.48,-197.42 1646.18,-201.69 1646.73,-194.71"/>
<text text-anchor="middle" x="1770.24" y="-234.2" font-family="Times,serif" font-size="14.00">1&#45;0 2&#45;2</text>
</g>
<!-- v3061 -->
<g id="node12" class="node">
<title>v3061</title>
<ellipse fill="none" stroke="black" cx="915.37" cy="-195" rx="27" ry="18"/>
<text text-anchor="middle" x="915.37" y="-189.95" font-family="Times,serif" font-size="14.00">2&#45;3</text>
</g>
<!-- v3052&#45;&gt;v3061 -->
<g id="edge16" class="edge">
<title>v3052&#45;&gt;v3061</title>
<path fill="none" stroke="black" d="M1362.94,-271.19C1357.98,-268.91 1352.59,-266.82 1347.37,-265.5 1274.92,-247.2 1082.17,-272.09 1011.62,-247.5 999.65,-243.33 999.29,-237.43 988.37,-231 975.37,-223.35 960.44,-215.96 947.48,-209.96"/>
<polygon fill="black" stroke="black" points="949.14,-206.42 938.59,-205.47 946.25,-212.79 949.14,-206.42"/>
<text text-anchor="middle" x="1031.24" y="-234.2" font-family="Times,serif" font-size="14.00">1&#45;0 2&#45;3</text>
</g>
<!-- v3062 -->
<g id="node13" class="node">
<title>v3062</title>
<ellipse fill="none" stroke="black" cx="1262.37" cy="-195" rx="27" ry="18"/>
<text text-anchor="middle" x="1262.37" y="-189.95" font-family="Times,serif" font-size="14.00">2&#45;4</text>
</g>
<!-- v3052&#45;&gt;v3062 -->
<g id="edge17" class="edge">
<title>v3052&#45;&gt;v3062</title>
<path fill="none" stroke="black" d="M1375.23,-266.24C1368.93,-255.06 1359.28,-240.55 1347.37,-231 1332.86,-219.37 1313.96,-211.08 1297.66,-205.5"/>
<polygon fill="black" stroke="black" points="1298.99,-201.93 1288.4,-202.21 1296.86,-208.59 1298.99,-201.93"/>
<text text-anchor="middle" x="1382.24" y="-234.2" font-family="Times,serif" font-size="14.00">1&#45;0 2&#45;4</text>
</g>
<!-- v3063 -->
<g id="node14" class="node">
<title>v3063</title>
<ellipse fill="none" stroke="black" cx="317.37" cy="-195" rx="27" ry="18"/>
<text text-anchor="middle" x="317.37" y="-189.95" font-family="Times,serif" font-size="14.00">2&#45;5</text>
</g>
<!-- v3052&#45;&gt;v3063 -->
<g id="edge18" class="edge">
<title>v3052&#45;&gt;v3063</title>
<path fill="none" stroke="black" d="M1363.35,-271.23C1358.29,-268.89 1352.75,-266.76 1347.37,-265.5 1292.57,-252.7 380,-280.77 334.62,-247.5 327.05,-241.95 322.76,-232.93 320.34,-223.98"/>
<polygon fill="black" stroke="black" points="323.61,-223.46 318.22,-214.33 316.74,-224.82 323.61,-223.46"/>
<text text-anchor="middle" x="355.24" y="-234.2" font-family="Times,serif" font-size="14.00">1&#45;0 2&#45;5</text>
</g>
<!-- v3053&#45;&gt;v3058 -->
<g id="edge19" class="edge">
<title>v3053&#45;&gt;v3058</title>
<path fill="none" stroke="black" d="M1219.34,-271.26C1214.28,-268.92 1208.75,-266.78 1203.37,-265.5 1165.75,-256.55 534.6,-275.19 507.62,-247.5 486.8,-226.13 529.45,-211.19 563.59,-203.09"/>
<polygon fill="black" stroke="black" points="564.29,-206.3 573.29,-200.7 562.77,-199.47 564.29,-206.3"/>
<text text-anchor="middle" x="528.24" y="-234.2" font-family="Times,serif" font-size="14.00">1&#45;1 2&#45;0</text>
</g>
<!-- v3053&#45;&gt;v3059 -->
<g id="edge20" class="edge">
<title>v3053&#45;&gt;v3059</title>
<path fill="none" stroke="black" d="M1259.39,-271.25C1264.45,-268.92 1269.99,-266.78 1275.37,-265.5 1314.35,-256.25 1968.39,-276.18 1996.37,-247.5 2002.86,-240.85 2002.58,-231.31 1999.91,-222.25"/>
<polygon fill="black" stroke="black" points="2002.82,-221.08 1995.92,-213.03 1996.29,-223.62 2002.82,-221.08"/>
<text text-anchor="middle" x="2021.24" y="-234.2" font-family="Times,serif" font-size="14.00">1&#45;1 2&#45;1</text>
</g>
<!-- v3053&#45;&gt;v3060 -->
<g id="edge21" class="edge">
<title>v3053&#45;&gt;v3060</title>
<path fill="none" stroke="black" d="M1259.79,-271.18C1264.75,-268.91 1270.14,-266.82 1275.37,-265.5 1312.37,-256.18 1592.1,-275.18 1618.37,-247.5 1624.76,-240.76 1624.47,-231.2 1621.81,-222.16"/>
<polygon fill="black" stroke="black" points="1624.73,-221.01 1617.85,-212.96 1618.2,-223.55 1624.73,-221.01"/>
<text text-anchor="middle" x="1643.24" y="-234.2" font-family="Times,serif" font-size="14.00">1&#45;1 2&#45;2</text>
</g>
<!-- v3053&#45;&gt;v3061 -->
<g id="edge22" class="edge">
<title>v3053&#45;&gt;v3061</title>
<path fill="none" stroke="black" d="M1218.93,-271.2C1213.97,-268.92 1208.59,-266.83 1203.37,-265.5 1169.09,-256.79 909.9,-273.2 885.62,-247.5 877.31,-238.71 882.84,-227.17 891.28,-217.25"/>
<polygon fill="black" stroke="black" points="893.42,-220.03 897.82,-210.39 888.37,-215.18 893.42,-220.03"/>
<text text-anchor="middle" x="905.24" y="-234.2" font-family="Times,serif" font-size="14.00">1&#45;1 2&#45;3</text>
</g>
<!-- v3053&#45;&gt;v3062 -->
<g id="edge23" class="edge">
<title>v3053&#45;&gt;v3062</title>
<path fill="none" stroke="black" d="M1243.91,-265.41C1247.09,-253.44 1251.41,-237.2 1255.07,-223.43"/>
<polygon fill="black" stroke="black" points="1258.64,-224.62 1257.83,-214.05 1251.88,-222.82 1258.64,-224.62"/>
<text text-anchor="middle" x="1272.24" y="-234.2" font-family="Times,serif" font-size="14.00">1&#45;1 2&#45;4</text>
</g>
<!-- v3053&#45;&gt;v3063 -->
<g id="edge24" class="edge">
<title>v3053&#45;&gt;v3063</title>
<path fill="none" stroke="black" d="M1219.35,-271.23C1214.29,-268.89 1208.75,-266.76 1203.37,-265.5 1176.02,-259.11 212.29,-267.53 192.62,-247.5 163.73,-218.1 233.44,-204.79 279.89,-199.34"/>
<polygon fill="black" stroke="black" points="279.98,-202.74 289.55,-198.17 279.22,-195.78 279.98,-202.74"/>
<text text-anchor="middle" x="213.24" y="-234.2" font-family="Times,serif" font-size="14.00">1&#45;1 2&#45;5</text>
</g>
<!-- v3054&#45;&gt;v3058 -->
<g id="edge25" class="edge">
<title>v3054&#45;&gt;v3058</title>
<path fill="none" stroke="black" d="M1291.34,-271.26C1286.28,-268.92 1280.75,-266.78 1275.37,-265.5 1237.26,-256.44 597.95,-275.55 570.62,-247.5 562.17,-238.84 567.69,-227.31 576.16,-217.36"/>
<polygon fill="black" stroke="black" points="578.33,-220.11 582.73,-210.47 573.28,-215.27 578.33,-220.11"/>
<text text-anchor="middle" x="590.24" y="-234.2" font-family="Times,serif" font-size="14.00">1&#45;2 2&#45;0</text>
</g>
<!-- v3054&#45;&gt;v3059 -->
<g id="edge26" class="edge">
<title>v3054&#45;&gt;v3059</title>
<path fill="none" stroke="black" d="M1331.39,-271.25C1336.45,-268.92 1341.99,-266.78 1347.37,-265.5 1385.86,-256.36 2031.74,-275.83 2059.37,-247.5 2075.81,-230.64 2047.06,-215.66 2020.95,-206.26"/>
<polygon fill="black" stroke="black" points="2022.4,-202.72 2011.8,-202.83 2020.15,-209.35 2022.4,-202.72"/>
<text text-anchor="middle" x="2083.24" y="-234.2" font-family="Times,serif" font-size="14.00">1&#45;2 2&#45;1</text>
</g>
<!-- v3054&#45;&gt;v3060 -->
<g id="edge27" class="edge">
<title>v3054&#45;&gt;v3060</title>
<path fill="none" stroke="black" d="M1331.8,-271.19C1336.76,-268.91 1342.14,-266.82 1347.37,-265.5 1383.4,-256.39 1655.8,-274.48 1681.37,-247.5 1697.47,-230.5 1669.2,-215.64 1643.28,-206.31"/>
<polygon fill="black" stroke="black" points="1644.79,-202.79 1634.2,-202.9 1642.55,-209.42 1644.79,-202.79"/>
<text text-anchor="middle" x="1705.24" y="-234.2" font-family="Times,serif" font-size="14.00">1&#45;2 2&#45;2</text>
</g>
<!-- v3054&#45;&gt;v3061 -->
<g id="edge28" class="edge">
<title>v3054&#45;&gt;v3061</title>
<path fill="none" stroke="black" d="M1290.94,-271.19C1285.98,-268.92 1280.59,-266.82 1275.37,-265.5 1204.87,-247.64 1011.5,-284.03 948.62,-247.5 938.92,-241.87 931.57,-232.14 926.28,-222.65"/>
<polygon fill="black" stroke="black" points="929.08,-221.43 921.5,-214.03 922.81,-224.54 929.08,-221.43"/>
<text text-anchor="middle" x="968.24" y="-234.2" font-family="Times,serif" font-size="14.00">1&#45;2 2&#45;3</text>
</g>
<!-- v3054&#45;&gt;v3062 -->
<g id="edge29" class="edge">
<title>v3054&#45;&gt;v3062</title>
<path fill="none" stroke="black" d="M1308.57,-265.43C1306.35,-254.98 1302.55,-241.62 1296.37,-231 1293.56,-226.18 1289.95,-221.53 1286.14,-217.27"/>
<polygon fill="black" stroke="black" points="1289.19,-215.36 1279.7,-210.64 1284.17,-220.25 1289.19,-215.36"/>
<text text-anchor="middle" x="1323.24" y="-234.2" font-family="Times,serif" font-size="14.00">1&#45;2 2&#45;4</text>
</g>
<!-- v3054&#45;&gt;v3063 -->
<g id="edge30" class="edge">
<title>v3054&#45;&gt;v3063</title>
<path fill="none" stroke="black" d="M1291.35,-271.23C1286.29,-268.89 1280.75,-266.76 1275.37,-265.5 1247.78,-259.06 275.47,-267.71 255.62,-247.5 241.6,-233.23 262.62,-218.8 283.85,-208.86"/>
<polygon fill="black" stroke="black" points="285.06,-211.71 292.81,-204.49 282.25,-205.3 285.06,-211.71"/>
<text text-anchor="middle" x="276.24" y="-234.2" font-family="Times,serif" font-size="14.00">1&#45;2 2&#45;5</text>
</g>
<!-- v3055&#45;&gt;v3058 -->
<g id="edge31" class="edge">
<title>v3055&#45;&gt;v3058</title>
<path fill="none" stroke="black" d="M1067.99,-282.2C939.98,-280.67 405.7,-272.8 381.62,-247.5 376.56,-242.19 376.86,-236.58 381.62,-231 404.38,-204.31 505.79,-197.88 562.19,-196.4"/>
<polygon fill="black" stroke="black" points="562.25,-199.87 572.17,-196.15 562.09,-192.88 562.25,-199.87"/>
<text text-anchor="middle" x="402.24" y="-234.2" font-family="Times,serif" font-size="14.00">1&#45;3 2&#45;0</text>
</g>
<!-- v3055&#45;&gt;v3059 -->
<g id="edge32" class="edge">
<title>v3055&#45;&gt;v3059</title>
<path fill="none" stroke="black" d="M1115.39,-271.25C1120.45,-268.92 1125.99,-266.78 1131.37,-265.5 1287.96,-228.34 1698.92,-285.27 1855.37,-247.5 1871.79,-243.53 1874.04,-237.55 1889.62,-231 1910.13,-222.38 1933.58,-213.86 1952.26,-207.39"/>
<polygon fill="black" stroke="black" points="1953.32,-210.38 1961.65,-203.83 1951.05,-203.76 1953.32,-210.38"/>
<text text-anchor="middle" x="1909.24" y="-234.2" font-family="Times,serif" font-size="14.00">1&#45;3 2&#45;1</text>
</g>
<!-- v3055&#45;&gt;v3060 -->
<g id="edge33" class="edge">
<title>v3055&#45;&gt;v3060</title>
<path fill="none" stroke="black" d="M1115.79,-271.17C1120.75,-268.9 1126.14,-266.81 1131.37,-265.5 1209.28,-245.98 1417.75,-277.24 1492.37,-247.5 1502.83,-243.33 1501.88,-236.68 1511.62,-231 1530.8,-219.82 1554.16,-211.24 1573.12,-205.38"/>
<polygon fill="black" stroke="black" points="1573.84,-208.52 1582.43,-202.32 1571.85,-201.81 1573.84,-208.52"/>
<text text-anchor="middle" x="1531.24" y="-234.2" font-family="Times,serif" font-size="14.00">1&#45;3 2&#45;2</text>
</g>
<!-- v3055&#45;&gt;v3061 -->
<g id="edge34" class="edge">
<title>v3055&#45;&gt;v3061</title>
<path fill="none" stroke="black" d="M1068.19,-281.71C991.94,-279.22 780.16,-270.3 759.62,-247.5 724.49,-208.53 820.57,-198.98 877.21,-196.68"/>
<polygon fill="black" stroke="black" points="877.09,-200.16 886.97,-196.32 876.85,-193.16 877.09,-200.16"/>
<text text-anchor="middle" x="779.24" y="-234.2" font-family="Times,serif" font-size="14.00">1&#45;3 2&#45;3</text>
</g>
<!-- v3055&#45;&gt;v3062 -->
<g id="edge35" class="edge">
<title>v3055&#45;&gt;v3062</title>
<path fill="none" stroke="black" d="M1107.27,-266.92C1116.77,-255.48 1131.04,-240.35 1146.62,-231 1170.86,-216.45 1201.63,-207.52 1225.35,-202.33"/>
<polygon fill="black" stroke="black" points="1225.94,-205.57 1235.03,-200.13 1224.53,-198.71 1225.94,-205.57"/>
<text text-anchor="middle" x="1166.24" y="-234.2" font-family="Times,serif" font-size="14.00">1&#45;3 2&#45;4</text>
</g>
<!-- v3055&#45;&gt;v3063 -->
<g id="edge36" class="edge">
<title>v3055&#45;&gt;v3063</title>
<path fill="none" stroke="black" d="M1068.1,-282.63C908.63,-283.25 102.42,-284.54 66.62,-247.5 61.52,-242.23 61.8,-236.53 66.62,-231 93.7,-199.87 215.9,-195.58 279.16,-195.5"/>
<polygon fill="black" stroke="black" points="278.87,-199 288.88,-195.53 278.89,-192 278.87,-199"/>
<text text-anchor="middle" x="87.24" y="-234.2" font-family="Times,serif" font-size="14.00">1&#45;3 2&#45;5</text>
</g>
<!-- v3056&#45;&gt;v3058 -->
<g id="edge37" class="edge">
<title>v3056&#45;&gt;v3058</title>
<path fill="none" stroke="black" d="M1147.34,-271.26C1142.28,-268.92 1136.75,-266.78 1131.37,-265.5 1094.24,-256.66 471.25,-274.84 444.62,-247.5 407.91,-209.82 505.23,-199.7 562.3,-196.99"/>
<polygon fill="black" stroke="black" points="562.28,-200.45 572.12,-196.54 561.99,-193.46 562.28,-200.45"/>
<text text-anchor="middle" x="465.24" y="-234.2" font-family="Times,serif" font-size="14.00">1&#45;4 2&#45;0</text>
</g>
<!-- v3056&#45;&gt;v3059 -->
<g id="edge38" class="edge">
<title>v3056&#45;&gt;v3059</title>
<path fill="none" stroke="black" d="M1187.39,-271.25C1192.45,-268.92 1197.99,-266.78 1203.37,-265.5 1282.31,-246.77 1858.57,-278.93 1933.37,-247.5 1937.36,-245.82 1951.88,-231.6 1964.71,-218.52"/>
<polygon fill="black" stroke="black" points="1966.9,-221.26 1971.37,-211.65 1961.89,-216.37 1966.9,-221.26"/>
<text text-anchor="middle" x="1970.24" y="-234.2" font-family="Times,serif" font-size="14.00">1&#45;4 2&#45;1</text>
</g>
<!-- v3056&#45;&gt;v3060 -->
<g id="edge39" class="edge">
<title>v3056&#45;&gt;v3060</title>
<path fill="none" stroke="black" d="M1187.79,-271.18C1192.75,-268.9 1198.14,-266.81 1203.37,-265.5 1279.33,-246.42 1483.57,-278.8 1555.37,-247.5 1559.34,-245.77 1573.85,-231.55 1586.69,-218.48"/>
<polygon fill="black" stroke="black" points="1588.88,-221.23 1593.36,-211.62 1583.87,-216.34 1588.88,-221.23"/>
<text text-anchor="middle" x="1592.24" y="-234.2" font-family="Times,serif" font-size="14.00">1&#45;4 2&#45;2</text>
</g>
<!-- v3056&#45;&gt;v3061 -->
<g id="edge40" class="edge">
<title>v3056&#45;&gt;v3061</title>
<path fill="none" stroke="black" d="M1146.93,-271.21C1141.97,-268.93 1136.59,-266.83 1131.37,-265.5 1098.07,-257.01 846.2,-272.5 822.62,-247.5 802.14,-225.8 844.71,-210.94 878.73,-202.96"/>
<polygon fill="black" stroke="black" points="879.38,-206.18 888.39,-200.61 877.87,-199.34 879.38,-206.18"/>
<text text-anchor="middle" x="842.24" y="-234.2" font-family="Times,serif" font-size="14.00">1&#45;4 2&#45;3</text>
</g>
<!-- v3056&#45;&gt;v3062 -->
<g id="edge41" class="edge">
<title>v3056&#45;&gt;v3062</title>
<path fill="none" stroke="black" d="M1176.68,-266.34C1183.47,-255.48 1193.42,-241.32 1204.62,-231 1212.61,-223.63 1222.4,-217 1231.63,-211.55"/>
<polygon fill="black" stroke="black" points="1232.94,-214.26 1239.94,-206.31 1229.51,-208.16 1232.94,-214.26"/>
<text text-anchor="middle" x="1224.24" y="-234.2" font-family="Times,serif" font-size="14.00">1&#45;4 2&#45;4</text>
</g>
<!-- v3056&#45;&gt;v3063 -->
<g id="edge42" class="edge">
<title>v3056&#45;&gt;v3063</title>
<path fill="none" stroke="black" d="M1147.35,-271.23C1142.29,-268.89 1136.75,-266.76 1131.37,-265.5 1104.27,-259.17 149.12,-267.36 129.62,-247.5 84.19,-201.24 212.25,-195.39 279.32,-195.37"/>
<polygon fill="black" stroke="black" points="278.9,-198.87 288.91,-195.41 278.92,-191.87 278.9,-198.87"/>
<text text-anchor="middle" x="150.24" y="-234.2" font-family="Times,serif" font-size="14.00">1&#45;4 2&#45;5</text>
</g>
<!-- v3057&#45;&gt;v3058 -->
<g id="edge43" class="edge">
<title>v3057&#45;&gt;v3058</title>
<path fill="none" stroke="black" d="M1434.94,-271.19C1429.98,-268.91 1424.59,-266.82 1419.37,-265.5 1273.61,-228.72 1226.24,-288.51 1081.62,-247.5 1066.88,-243.32 1066.05,-235.36 1051.37,-231 1012.31,-219.41 740.26,-203.61 638.59,-198.04"/>
<polygon fill="black" stroke="black" points="638.79,-194.5 628.61,-197.45 638.41,-201.49 638.79,-194.5"/>
<text text-anchor="middle" x="1101.24" y="-234.2" font-family="Times,serif" font-size="14.00">1&#45;5 2&#45;0</text>
</g>
<!-- v3057&#45;&gt;v3059 -->
<g id="edge44" class="edge">
<title>v3057&#45;&gt;v3059</title>
<path fill="none" stroke="black" d="M1482.44,-282.32C1616.74,-281.28 2205.92,-275.17 2232.37,-247.5 2237.43,-242.2 2237.17,-236.54 2232.37,-231 2205.95,-200.56 2087.02,-195.91 2024.72,-195.62"/>
<polygon fill="black" stroke="black" points="2024.78,-192.12 2014.78,-195.61 2024.77,-199.12 2024.78,-192.12"/>
<text text-anchor="middle" x="2255.24" y="-234.2" font-family="Times,serif" font-size="14.00">1&#45;5 2&#45;1</text>
</g>
<!-- v3057&#45;&gt;v3060 -->
<g id="edge45" class="edge">
<title>v3057&#45;&gt;v3060</title>
<path fill="none" stroke="black" d="M1482.5,-282.24C1611.85,-280.84 2160.66,-273.42 2185.37,-247.5 2190.43,-242.19 2190.39,-236.34 2185.37,-231 2180.73,-226.07 1774.13,-204.59 1646.35,-197.96"/>
<polygon fill="black" stroke="black" points="1646.73,-194.42 1636.56,-197.4 1646.36,-201.41 1646.73,-194.42"/>
<text text-anchor="middle" x="2208.24" y="-234.2" font-family="Times,serif" font-size="14.00">1&#45;5 2&#45;2</text>
</g>
<!-- v3057&#45;&gt;v3061 -->
<g id="edge46" class="edge">
<title>v3057&#45;&gt;v3061</title>
<path fill="none" stroke="black" d="M1445.03,-266.4C1436.31,-254.36 1422.66,-238.69 1406.37,-231 1385.96,-221.37 1064.9,-203.8 953.27,-197.95"/>
<polygon fill="black" stroke="black" points="953.7,-194.42 943.53,-197.39 953.33,-201.41 953.7,-194.42"/>
<text text-anchor="middle" x="1447.24" y="-234.2" font-family="Times,serif" font-size="14.00">1&#45;5 2&#45;3</text>
</g>
<!-- v3057&#45;&gt;v3062 -->
<g id="edge47" class="edge">
<title>v3057&#45;&gt;v3062</title>
<path fill="none" stroke="black" d="M1482.74,-282.69C1572.99,-282.85 1852.84,-279.48 1807.37,-231 1803.02,-226.36 1423.15,-204.91 1300.26,-198.09"/>
<polygon fill="black" stroke="black" points="1300.7,-194.55 1290.52,-197.5 1300.31,-201.54 1300.7,-194.55"/>
<text text-anchor="middle" x="1831.24" y="-234.2" font-family="Times,serif" font-size="14.00">1&#45;5 2&#45;4</text>
</g>
<!-- v3057&#45;&gt;v3063 -->
<g id="edge48" class="edge">
<title>v3057&#45;&gt;v3063</title>
<path fill="none" stroke="black" d="M1435.34,-271.26C1430.28,-268.92 1424.75,-266.78 1419.37,-265.5 1265.43,-228.93 861.41,-284.66 707.62,-247.5 691.19,-243.53 689.64,-235.56 673.37,-231 614.31,-214.43 434.43,-202.59 355.35,-198.05"/>
<polygon fill="black" stroke="black" points="355.62,-194.5 345.44,-197.43 355.22,-201.49 355.62,-194.5"/>
<text text-anchor="middle" x="727.24" y="-234.2" font-family="Times,serif" font-size="14.00">1&#45;5 2&#45;5</text>
</g>
<!-- v3064 -->
<g id="node15" class="node">
<title>v3064</title>
<ellipse fill="none" stroke="black" cx="1577.37" cy="-106.5" rx="27" ry="18"/>
<text text-anchor="middle" x="1577.37" y="-101.45" font-family="Times,serif" font-size="14.00">3&#45;0</text>
</g>
<!-- v3058&#45;&gt;v3064 -->
<g id="edge49" class="edge">
<title>v3058&#45;&gt;v3064</title>
<path fill="none" stroke="black" d="M627.28,-192.08C677.04,-188.59 786.77,-181.18 879.37,-177 947.44,-173.93 1428.81,-183.58 1492.37,-159 1502.88,-154.94 1502.31,-148.85 1511.62,-142.5 1522.33,-135.19 1534.74,-128.23 1545.87,-122.48"/>
<polygon fill="black" stroke="black" points="1547.3,-125.18 1554.65,-117.55 1544.15,-118.92 1547.3,-125.18"/>
<text text-anchor="middle" x="1531.24" y="-145.7" font-family="Times,serif" font-size="14.00">2&#45;0 3&#45;0</text>
</g>
<!-- v3066 -->
<g id="node16" class="node">
<title>v3066</title>
<ellipse fill="none" stroke="black" cx="1199.37" cy="-106.5" rx="27" ry="18"/>
<text text-anchor="middle" x="1199.37" y="-101.45" font-family="Times,serif" font-size="14.00">3&#45;1</text>
</g>
<!-- v3058&#45;&gt;v3066 -->
<g id="edge50" class="edge">
<title>v3058&#45;&gt;v3066</title>
<path fill="none" stroke="black" d="M627.33,-192.39C731.56,-186.16 1102.98,-163.66 1114.37,-159 1124.8,-154.73 1124.31,-148.85 1133.62,-142.5 1144.33,-135.19 1156.74,-128.23 1167.87,-122.48"/>
<polygon fill="black" stroke="black" points="1169.3,-125.18 1176.65,-117.55 1166.15,-118.92 1169.3,-125.18"/>
<text text-anchor="middle" x="1153.24" y="-145.7" font-family="Times,serif" font-size="14.00">2&#45;0 3&#45;1</text>
</g>
<!-- v3068 -->
<g id="node17" class="node">
<title>v3068</title>
<ellipse fill="none" stroke="black" cx="191.37" cy="-106.5" rx="27" ry="18"/>
<text text-anchor="middle" x="191.37" y="-101.45" font-family="Times,serif" font-size="14.00">3&#45;2</text>
</g>
<!-- v3058&#45;&gt;v3068 -->
<g id="edge51" class="edge">
<title>v3058&#45;&gt;v3068</title>
<path fill="none" stroke="black" d="M573.32,-192.09C527.89,-188.88 433.36,-182.26 353.37,-177 321.51,-174.9 88.47,-182.27 66.62,-159 38.53,-129.1 107.2,-116.01 153.42,-110.72"/>
<polygon fill="black" stroke="black" points="153.76,-114.1 163.33,-109.57 153.02,-107.14 153.76,-114.1"/>
<text text-anchor="middle" x="87.24" y="-145.7" font-family="Times,serif" font-size="14.00">2&#45;0 3&#45;2</text>
</g>
<!-- v3070 -->
<g id="node18" class="node">
<title>v3070</title>
<ellipse fill="none" stroke="black" cx="1955.37" cy="-106.5" rx="27" ry="18"/>
<text text-anchor="middle" x="1955.37" y="-101.45" font-family="Times,serif" font-size="14.00">3&#45;3</text>
</g>
<!-- v3058&#45;&gt;v3070 -->
<g id="edge52" class="edge">
<title>v3058&#45;&gt;v3070</title>
<path fill="none" stroke="black" d="M627.28,-191.98C677.03,-188.32 786.75,-180.66 879.37,-177 934.39,-174.83 1818.9,-178.57 1870.37,-159 1880.9,-154.99 1880.31,-148.85 1889.62,-142.5 1900.33,-135.19 1912.74,-128.23 1923.87,-122.48"/>
<polygon fill="black" stroke="black" points="1925.3,-125.18 1932.65,-117.55 1922.15,-118.92 1925.3,-125.18"/>
<text text-anchor="middle" x="1909.24" y="-145.7" font-family="Times,serif" font-size="14.00">2&#45;0 3&#45;3</text>
</g>
<!-- v3072 -->
<g id="node19" class="node">
<title>v3072</title>
<ellipse fill="none" stroke="black" cx="884.37" cy="-106.5" rx="27" ry="18"/>
<text text-anchor="middle" x="884.37" y="-101.45" font-family="Times,serif" font-size="14.00">3&#45;4</text>
</g>
<!-- v3058&#45;&gt;v3072 -->
<g id="edge53" class="edge">
<title>v3058&#45;&gt;v3072</title>
<path fill="none" stroke="black" d="M626.01,-188.58C653.59,-182.47 698.59,-171.73 736.37,-159 754.3,-152.96 757.87,-149.07 775.62,-142.5 800.12,-133.43 828.2,-124.42 849.69,-117.82"/>
<polygon fill="black" stroke="black" points="850.43,-120.95 858.97,-114.69 848.39,-114.25 850.43,-120.95"/>
<text text-anchor="middle" x="795.24" y="-145.7" font-family="Times,serif" font-size="14.00">2&#45;0 3&#45;4</text>
</g>
<!-- v3074 -->
<g id="node20" class="node">
<title>v3074</title>
<ellipse fill="none" stroke="black" cx="506.37" cy="-106.5" rx="27" ry="18"/>
<text text-anchor="middle" x="506.37" y="-101.45" font-family="Times,serif" font-size="14.00">3&#45;5</text>
</g>
<!-- v3058&#45;&gt;v3074 -->
<g id="edge54" class="edge">
<title>v3058&#45;&gt;v3074</title>
<path fill="none" stroke="black" d="M573.17,-193.85C520.13,-192.91 405.95,-187.53 381.62,-159 355.07,-127.87 422.77,-115.25 468.5,-110.37"/>
<polygon fill="black" stroke="black" points="468.69,-113.77 478.3,-109.31 468.01,-106.8 468.69,-113.77"/>
<text text-anchor="middle" x="402.24" y="-145.7" font-family="Times,serif" font-size="14.00">2&#45;0 3&#45;5</text>
</g>
<!-- v3059&#45;&gt;v3064 -->
<g id="edge55" class="edge">
<title>v3059&#45;&gt;v3064</title>
<path fill="none" stroke="black" d="M2013.16,-191.78C2057.41,-187.17 2138.06,-174.22 2108.37,-142.5 2099.93,-133.49 1735.04,-115.11 1615.12,-109.3"/>
<polygon fill="black" stroke="black" points="1615.46,-105.76 1605.3,-108.78 1615.12,-112.76 1615.46,-105.76"/>
<text text-anchor="middle" x="2134.24" y="-145.7" font-family="Times,serif" font-size="14.00">2&#45;1 3&#45;0</text>
</g>
<!-- v3059&#45;&gt;v3066 -->
<g id="edge56" class="edge">
<title>v3059&#45;&gt;v3066</title>
<path fill="none" stroke="black" d="M1959.31,-191.77C1917.54,-187.86 1835.11,-178.28 1767.62,-159 1749.42,-153.8 1746.78,-146.85 1728.37,-142.5 1681.01,-131.31 1350.87,-114.72 1237.49,-109.29"/>
<polygon fill="black" stroke="black" points="1237.75,-105.75 1227.6,-108.77 1237.42,-112.74 1237.75,-105.75"/>
<text text-anchor="middle" x="1787.24" y="-145.7" font-family="Times,serif" font-size="14.00">2&#45;1 3&#45;1</text>
</g>
<!-- v3059&#45;&gt;v3068 -->
<g id="edge57" class="edge">
<title>v3059&#45;&gt;v3068</title>
<path fill="none" stroke="black" d="M1959.33,-192.36C1901.55,-188.93 1761.71,-180.96 1644.37,-177 1588.01,-175.1 682.32,-179.03 629.62,-159 619.08,-155 620.76,-146.85 610.37,-142.5 592.92,-135.21 329.08,-116.78 229.25,-110.03"/>
<polygon fill="black" stroke="black" points="229.67,-106.48 219.46,-109.3 229.2,-113.47 229.67,-106.48"/>
<text text-anchor="middle" x="649.24" y="-145.7" font-family="Times,serif" font-size="14.00">2&#45;1 3&#45;2</text>
</g>
<!-- v3059&#45;&gt;v3070 -->
<g id="edge58" class="edge">
<title>v3059&#45;&gt;v3070</title>
<path fill="none" stroke="black" d="M2013.4,-193.37C2062.6,-191.58 2163.71,-184.79 2185.37,-159 2190.08,-153.38 2190.15,-148.06 2185.37,-142.5 2161.07,-114.23 2052.22,-108.53 1993.39,-107.55"/>
<polygon fill="black" stroke="black" points="1993.72,-104.04 1983.67,-107.42 1993.63,-111.04 1993.72,-104.04"/>
<text text-anchor="middle" x="2208.24" y="-145.7" font-family="Times,serif" font-size="14.00">2&#45;1 3&#45;3</text>
</g>
<!-- v3059&#45;&gt;v3072 -->
<g id="edge59" class="edge">
<title>v3059&#45;&gt;v3072</title>
<path fill="none" stroke="black" d="M1959.47,-192.62C1844.96,-186.74 1403.25,-163.79 1389.62,-159 1377.66,-154.8 1378.29,-146.78 1366.37,-142.5 1345.56,-135.03 1032.23,-116.13 922.21,-109.69"/>
<polygon fill="black" stroke="black" points="922.5,-106.14 912.31,-109.05 922.09,-113.13 922.5,-106.14"/>
<text text-anchor="middle" x="1409.24" y="-145.7" font-family="Times,serif" font-size="14.00">2&#45;1 3&#45;4</text>
</g>
<!-- v3059&#45;&gt;v3074 -->
<g id="edge60" class="edge">
<title>v3059&#45;&gt;v3074</title>
<path fill="none" stroke="black" d="M1959.33,-192.46C1901.54,-189.21 1761.69,-181.57 1644.37,-177 1573.64,-174.24 1073.64,-184.49 1007.62,-159 997.1,-154.94 998.79,-146.79 988.37,-142.5 947.76,-125.78 651.17,-113 544.47,-108.9"/>
<polygon fill="black" stroke="black" points="544.71,-105.37 534.59,-108.48 544.45,-112.36 544.71,-105.37"/>
<text text-anchor="middle" x="1027.24" y="-145.7" font-family="Times,serif" font-size="14.00">2&#45;1 3&#45;5</text>
</g>
<!-- v3060&#45;&gt;v3064 -->
<g id="edge61" class="edge">
<title>v3060&#45;&gt;v3064</title>
<path fill="none" stroke="black" d="M1633.23,-187.57C1659.95,-179.41 1696.66,-163.79 1681.37,-142.5 1666.46,-121.76 1638.65,-113.14 1615.53,-109.64"/>
<polygon fill="black" stroke="black" points="1615.99,-106.05 1605.64,-108.3 1615.14,-113 1615.99,-106.05"/>
<text text-anchor="middle" x="1704.24" y="-145.7" font-family="Times,serif" font-size="14.00">2&#45;2 3&#45;0</text>
</g>
<!-- v3060&#45;&gt;v3066 -->
<g id="edge62" class="edge">
<title>v3060&#45;&gt;v3066</title>
<path fill="none" stroke="black" d="M1581.34,-193.64C1530.42,-192.31 1417.25,-186.25 1326.62,-159 1310.82,-154.25 1308.51,-149.05 1293.37,-142.5 1273.82,-134.04 1251.49,-125.67 1233.51,-119.24"/>
<polygon fill="black" stroke="black" points="1234.8,-115.63 1224.2,-115.6 1232.46,-122.23 1234.8,-115.63"/>
<text text-anchor="middle" x="1346.24" y="-145.7" font-family="Times,serif" font-size="14.00">2&#45;2 3&#45;1</text>
</g>
<!-- v3060&#45;&gt;v3068 -->
<g id="edge63" class="edge">
<title>v3060&#45;&gt;v3068</title>
<path fill="none" stroke="black" d="M1581.43,-192.19C1527.65,-188.64 1403.13,-180.8 1298.37,-177 1241.8,-174.95 334.13,-174.26 279.62,-159 256.7,-152.58 233.57,-138.75 216.74,-127.03"/>
<polygon fill="black" stroke="black" points="219.24,-123.8 209.08,-120.8 215.15,-129.48 219.24,-123.8"/>
<text text-anchor="middle" x="300.24" y="-145.7" font-family="Times,serif" font-size="14.00">2&#45;2 3&#45;2</text>
</g>
<!-- v3060&#45;&gt;v3070 -->
<g id="edge64" class="edge">
<title>v3060&#45;&gt;v3070</title>
<path fill="none" stroke="black" d="M1635.57,-192.9C1730.9,-188.91 2044.9,-174.63 2059.37,-159 2082.32,-134.2 2030.55,-119.79 1992.12,-112.8"/>
<polygon fill="black" stroke="black" points="1993.15,-109.25 1982.71,-111.02 1991.98,-116.16 1993.15,-109.25"/>
<text text-anchor="middle" x="2084.24" y="-145.7" font-family="Times,serif" font-size="14.00">2&#45;2 3&#45;3</text>
</g>
<!-- v3060&#45;&gt;v3072 -->
<g id="edge65" class="edge">
<title>v3060&#45;&gt;v3072</title>
<path fill="none" stroke="black" d="M1581.42,-192.49C1527.61,-189.49 1403.05,-182.56 1298.37,-177 1220.65,-172.87 1021.35,-186.67 948.62,-159 943.89,-157.2 924.8,-141.69 908.64,-128.15"/>
<polygon fill="black" stroke="black" points="911.45,-125.1 901.55,-121.34 906.94,-130.46 911.45,-125.1"/>
<text text-anchor="middle" x="968.24" y="-145.7" font-family="Times,serif" font-size="14.00">2&#45;2 3&#45;4</text>
</g>
<!-- v3060&#45;&gt;v3074 -->
<g id="edge66" class="edge">
<title>v3060&#45;&gt;v3074</title>
<path fill="none" stroke="black" d="M1581.43,-192.25C1527.64,-188.82 1403.12,-181.17 1298.37,-177 1257.96,-175.39 608.6,-172.88 570.62,-159 565.87,-157.27 546.78,-141.74 530.63,-128.19"/>
<polygon fill="black" stroke="black" points="533.44,-125.14 523.54,-121.37 528.92,-130.49 533.44,-125.14"/>
<text text-anchor="middle" x="590.24" y="-145.7" font-family="Times,serif" font-size="14.00">2&#45;2 3&#45;5</text>
</g>
<!-- v3061&#45;&gt;v3064 -->
<g id="edge67" class="edge">
<title>v3061&#45;&gt;v3064</title>
<path fill="none" stroke="black" d="M942.46,-192.52C1064.27,-185.86 1555.37,-159 1555.37,-159 1563.38,-153.39 1568.49,-144.23 1571.75,-135.18"/>
<polygon fill="black" stroke="black" points="1575.33,-136.41 1574.78,-125.83 1568.61,-134.45 1575.33,-136.41"/>
<text text-anchor="middle" x="1588.24" y="-145.7" font-family="Times,serif" font-size="14.00">2&#45;3 3&#45;0</text>
</g>
<!-- v3061&#45;&gt;v3066 -->
<g id="edge68" class="edge">
<title>v3061&#45;&gt;v3066</title>
<path fill="none" stroke="black" d="M942.69,-193.69C1002.17,-192.48 1140.92,-186.7 1177.37,-159 1185.16,-153.08 1190.22,-143.86 1193.5,-134.84"/>
<polygon fill="black" stroke="black" points="1197.06,-136.15 1196.58,-125.57 1190.36,-134.14 1197.06,-136.15"/>
<text text-anchor="middle" x="1209.24" y="-145.7" font-family="Times,serif" font-size="14.00">2&#45;3 3&#45;1</text>
</g>
<!-- v3061&#45;&gt;v3068 -->
<g id="edge69" class="edge">
<title>v3061&#45;&gt;v3068</title>
<path fill="none" stroke="black" d="M888.45,-192.13C838.69,-188.73 728.95,-181.46 636.37,-177 608.23,-175.64 149.18,-179.27 129.62,-159 115.72,-144.61 136.74,-130.19 157.93,-120.29"/>
<polygon fill="black" stroke="black" points="159.11,-123.15 166.87,-115.94 156.3,-116.74 159.11,-123.15"/>
<text text-anchor="middle" x="150.24" y="-145.7" font-family="Times,serif" font-size="14.00">2&#45;3 3&#45;2</text>
</g>
<!-- v3061&#45;&gt;v3070 -->
<g id="edge70" class="edge">
<title>v3061&#45;&gt;v3070</title>
<path fill="none" stroke="black" d="M942.39,-192.26C996.35,-188.84 1121.28,-181.21 1226.37,-177 1265.63,-175.43 1900.86,-181.06 1933.37,-159 1941.52,-153.47 1946.66,-144.24 1949.91,-135.12"/>
<polygon fill="black" stroke="black" points="1953.51,-136.26 1952.9,-125.68 1946.78,-134.33 1953.51,-136.26"/>
<text text-anchor="middle" x="1966.24" y="-145.7" font-family="Times,serif" font-size="14.00">2&#45;3 3&#45;3</text>
</g>
<!-- v3061&#45;&gt;v3072 -->
<g id="edge71" class="edge">
<title>v3061&#45;&gt;v3072</title>
<path fill="none" stroke="black" d="M888.38,-191.89C866.62,-188.6 837.3,-180.23 822.62,-159 811.55,-142.99 830.86,-129.14 850.73,-119.85"/>
<polygon fill="black" stroke="black" points="851.92,-122.72 859.72,-115.54 849.15,-116.29 851.92,-122.72"/>
<text text-anchor="middle" x="842.24" y="-145.7" font-family="Times,serif" font-size="14.00">2&#45;3 3&#45;4</text>
</g>
<!-- v3061&#45;&gt;v3074 -->
<g id="edge72" class="edge">
<title>v3061&#45;&gt;v3074</title>
<path fill="none" stroke="black" d="M888.17,-192.48C789.01,-186.85 452.22,-167.19 444.62,-159 431.01,-144.34 451.98,-129.95 473.09,-120.13"/>
<polygon fill="black" stroke="black" points="474.22,-123.02 481.99,-115.82 471.42,-116.6 474.22,-123.02"/>
<text text-anchor="middle" x="465.24" y="-145.7" font-family="Times,serif" font-size="14.00">2&#45;3 3&#45;5</text>
</g>
<!-- v3062&#45;&gt;v3064 -->
<g id="edge73" class="edge">
<title>v3062&#45;&gt;v3064</title>
<path fill="none" stroke="black" d="M1289.74,-193.38C1369.33,-191.29 1596.39,-183.24 1618.37,-159 1628.03,-148.34 1618.27,-135.7 1605.85,-125.61"/>
<polygon fill="black" stroke="black" points="1608.15,-122.23 1598.03,-119.09 1603.99,-127.86 1608.15,-122.23"/>
<text text-anchor="middle" x="1641.24" y="-145.7" font-family="Times,serif" font-size="14.00">2&#45;4 3&#45;0</text>
</g>
<!-- v3062&#45;&gt;v3066 -->
<g id="edge74" class="edge">
<title>v3062&#45;&gt;v3066</title>
<path fill="none" stroke="black" d="M1257.4,-177.21C1253.75,-166.62 1248.08,-153 1240.37,-142.5 1236.22,-136.86 1230.99,-131.53 1225.68,-126.8"/>
<polygon fill="black" stroke="black" points="1228.31,-123.61 1218.38,-119.93 1223.85,-129 1228.31,-123.61"/>
<text text-anchor="middle" x="1269.24" y="-145.7" font-family="Times,serif" font-size="14.00">2&#45;4 3&#45;1</text>
</g>
<!-- v3062&#45;&gt;v3068 -->
<g id="edge75" class="edge">
<title>v3062&#45;&gt;v3068</title>
<path fill="none" stroke="black" d="M1235.34,-192.24C1181.38,-188.79 1056.46,-181.12 951.37,-177 930.3,-176.17 207.53,-173.9 192.62,-159 186.55,-152.93 184.85,-144.18 185.1,-135.61"/>
<polygon fill="black" stroke="black" points="188.69,-136.01 186.35,-125.68 181.74,-135.21 188.69,-136.01"/>
<text text-anchor="middle" x="213.24" y="-145.7" font-family="Times,serif" font-size="14.00">2&#45;4 3&#45;2</text>
</g>
<!-- v3062&#45;&gt;v3070 -->
<g id="edge76" class="edge">
<title>v3062&#45;&gt;v3070</title>
<path fill="none" stroke="black" d="M1289.31,-192.41C1343.11,-189.26 1467.65,-182.09 1572.37,-177 1595.92,-175.85 1980.05,-176.02 1996.37,-159 2006.42,-148.51 1996.37,-135.74 1983.71,-125.53"/>
<polygon fill="black" stroke="black" points="1986.32,-122.37 1976.2,-119.25 1982.17,-128.01 1986.32,-122.37"/>
<text text-anchor="middle" x="2020.24" y="-145.7" font-family="Times,serif" font-size="14.00">2&#45;4 3&#45;3</text>
</g>
<!-- v3062&#45;&gt;v3072 -->
<g id="edge77" class="edge">
<title>v3062&#45;&gt;v3072</title>
<path fill="none" stroke="black" d="M1235.2,-193.51C1152.73,-191.77 909.41,-184.48 885.62,-159 879.76,-152.73 878.12,-143.92 878.35,-135.36"/>
<polygon fill="black" stroke="black" points="881.93,-135.81 879.55,-125.49 874.98,-135.05 881.93,-135.81"/>
<text text-anchor="middle" x="905.24" y="-145.7" font-family="Times,serif" font-size="14.00">2&#45;4 3&#45;4</text>
</g>
<!-- v3062&#45;&gt;v3074 -->
<g id="edge78" class="edge">
<title>v3062&#45;&gt;v3074</title>
<path fill="none" stroke="black" d="M1235.33,-192.39C1181.36,-189.22 1056.42,-182 951.37,-177 926.72,-175.83 524.92,-176.59 507.62,-159 501.6,-152.88 499.92,-144.12 500.16,-135.55"/>
<polygon fill="black" stroke="black" points="503.75,-135.96 501.4,-125.63 496.8,-135.17 503.75,-135.96"/>
<text text-anchor="middle" x="528.24" y="-145.7" font-family="Times,serif" font-size="14.00">2&#45;4 3&#45;5</text>
</g>
<!-- v3063&#45;&gt;v3064 -->
<g id="edge79" class="edge">
<title>v3063&#45;&gt;v3064</title>
<path fill="none" stroke="black" d="M344.39,-191.71C389.79,-187.97 484.28,-180.59 564.37,-177 612.38,-174.85 1384.46,-176.14 1429.37,-159 1439.89,-154.98 1438.66,-147.77 1448.62,-142.5 1477.45,-127.23 1513.54,-118.17 1540.17,-113.1"/>
<polygon fill="black" stroke="black" points="1540.72,-116.38 1549.95,-111.17 1539.49,-109.49 1540.72,-116.38"/>
<text text-anchor="middle" x="1468.24" y="-145.7" font-family="Times,serif" font-size="14.00">2&#45;5 3&#45;0</text>
</g>
<!-- v3063&#45;&gt;v3066 -->
<g id="edge80" class="edge">
<title>v3063&#45;&gt;v3066</title>
<path fill="none" stroke="black" d="M344.4,-191.86C389.81,-188.32 484.31,-181.23 564.37,-177 618.44,-174.14 1000.94,-178.72 1051.37,-159 1061.86,-154.9 1060.66,-147.77 1070.62,-142.5 1099.45,-127.23 1135.54,-118.17 1162.17,-113.1"/>
<polygon fill="black" stroke="black" points="1162.72,-116.38 1171.95,-111.17 1161.49,-109.49 1162.72,-116.38"/>
<text text-anchor="middle" x="1090.24" y="-145.7" font-family="Times,serif" font-size="14.00">2&#45;5 3&#45;1</text>
</g>
<!-- v3063&#45;&gt;v3068 -->
<g id="edge81" class="edge">
<title>v3063&#45;&gt;v3068</title>
<path fill="none" stroke="black" d="M290.15,-193C217.4,-190.05 22.6,-180.22 3.62,-159 -1.27,-153.53 -1.07,-148.14 3.62,-142.5 22.29,-120.02 104.26,-111.91 153.51,-109.03"/>
<polygon fill="black" stroke="black" points="153.58,-112.48 163.38,-108.45 153.2,-105.49 153.58,-112.48"/>
<text text-anchor="middle" x="24.24" y="-145.7" font-family="Times,serif" font-size="14.00">2&#45;5 3&#45;2</text>
</g>
<!-- v3063&#45;&gt;v3070 -->
<g id="edge82" class="edge">
<title>v3063&#45;&gt;v3070</title>
<path fill="none" stroke="black" d="M344.39,-191.66C389.79,-187.83 484.27,-180.33 564.37,-177 633.37,-174.13 1742.77,-183.43 1807.37,-159 1817.91,-155.01 1816.66,-147.77 1826.62,-142.5 1855.45,-127.23 1891.54,-118.17 1918.17,-113.1"/>
<polygon fill="black" stroke="black" points="1918.72,-116.38 1927.95,-111.17 1917.49,-109.49 1918.72,-116.38"/>
<text text-anchor="middle" x="1846.24" y="-145.7" font-family="Times,serif" font-size="14.00">2&#45;5 3&#45;3</text>
</g>
<!-- v3063&#45;&gt;v3072 -->
<g id="edge83" class="edge">
<title>v3063&#45;&gt;v3072</title>
<path fill="none" stroke="black" d="M344.54,-192.27C422.51,-187.19 643.34,-171.81 673.37,-159 683.73,-154.58 682.44,-147.35 692.62,-142.5 742.36,-118.8 806.39,-111.09 846.41,-108.62"/>
<polygon fill="black" stroke="black" points="846.48,-112.07 856.28,-108.04 846.11,-105.08 846.48,-112.07"/>
<text text-anchor="middle" x="712.24" y="-145.7" font-family="Times,serif" font-size="14.00">2&#45;5 3&#45;4</text>
</g>
<!-- v3063&#45;&gt;v3074 -->
<g id="edge84" class="edge">
<title>v3063&#45;&gt;v3074</title>
<path fill="none" stroke="black" d="M318.05,-176.8C319.43,-165.47 323.12,-151.18 332.62,-142.5 352.14,-124.65 423.81,-114.99 468.77,-110.57"/>
<polygon fill="black" stroke="black" points="468.95,-113.97 478.58,-109.56 468.3,-107 468.95,-113.97"/>
<text text-anchor="middle" x="353.24" y="-145.7" font-family="Times,serif" font-size="14.00">2&#45;5 3&#45;5</text>
</g>
<!-- v3064&#45;&gt;v3050 -->
<g id="edge1" class="edge">
<title>v3064&#45;&gt;v3050</title>
<path fill="none" stroke="black" d="M1550.98,-101.73C1455.8,-88.12 1129.64,-41.49 1013.68,-24.91"/>
<polygon fill="black" stroke="black" points="1014.53,-21.35 1004.13,-23.4 1013.54,-28.28 1014.53,-21.35"/>
<text text-anchor="middle" x="1334.74" y="-57.2" font-family="Times,serif" font-size="14.00">e0</text>
</g>
<!-- v3066&#45;&gt;v3050 -->
<g id="edge2" class="edge">
<title>v3066&#45;&gt;v3050</title>
<path fill="none" stroke="black" d="M1176.35,-96.73C1136.74,-81.64 1055.41,-50.64 1008.29,-32.69"/>
<polygon fill="black" stroke="black" points="1009.81,-29.14 999.21,-28.85 1007.31,-35.68 1009.81,-29.14"/>
<text text-anchor="middle" x="1111.74" y="-57.2" font-family="Times,serif" font-size="14.00">e1</text>
</g>
<!-- v3068&#45;&gt;v3050 -->
<g id="edge3" class="edge">
<title>v3068&#45;&gt;v3050</title>
<path fill="none" stroke="black" d="M217.8,-102.57C332.6,-89.86 788.48,-39.37 930.14,-23.68"/>
<polygon fill="black" stroke="black" points="930.39,-27.06 939.95,-22.48 929.62,-20.1 930.39,-27.06"/>
<text text-anchor="middle" x="657.74" y="-57.2" font-family="Times,serif" font-size="14.00">e2</text>
</g>
<!-- v3070&#45;&gt;v3050 -->
<g id="edge4" class="edge">
<title>v3070&#45;&gt;v3050</title>
<path fill="none" stroke="black" d="M1928.56,-103.14C1792.9,-91.2 1181.9,-37.44 1014.75,-22.73"/>
<polygon fill="black" stroke="black" points="1015.21,-19.17 1004.94,-21.78 1014.6,-26.14 1015.21,-19.17"/>
<text text-anchor="middle" x="1557.74" y="-57.2" font-family="Times,serif" font-size="14.00">e3</text>
</g>
<!-- v3072&#45;&gt;v3050 -->
<g id="edge5" class="edge">
<title>v3072&#45;&gt;v3050</title>
<path fill="none" stroke="black" d="M898.9,-91.22C912.53,-77.81 933.16,-57.54 949.08,-41.88"/>
<polygon fill="black" stroke="black" points="951.25,-44.68 955.92,-35.18 946.34,-39.69 951.25,-44.68"/>
<text text-anchor="middle" x="941.74" y="-57.2" font-family="Times,serif" font-size="14.00">e4</text>
</g>
<!-- v3074&#45;&gt;v3050 -->
<g id="edge6" class="edge">
<title>v3074&#45;&gt;v3050</title>
<path fill="none" stroke="black" d="M532.42,-100.66C609.69,-86.32 838,-43.94 931.62,-26.56"/>
<polygon fill="black" stroke="black" points="932.16,-29.84 941.35,-24.57 930.88,-22.96 932.16,-29.84"/>
<text text-anchor="middle" x="786.74" y="-57.2" font-family="Times,serif" font-size="14.00">e5</text>
</g>
<!-- \n -->
<g id="node21" class="node">
<title>\n</title>
<ellipse fill="none" stroke="black" cx="1344.37" cy="-372" rx="27" ry="18"/>
</g>
</g>
</svg>
